<svg width="751" height="585" viewBox="0 0 751 585" fill="none" xmlns="http://www.w3.org/2000/svg">
<path d="M431.547 561H415.047L410.266 546.047H386.359L381.625 561H365.219L389.688 493.781H407.641L431.547 561ZM406.797 534.422L399.578 511.828C399.047 510.141 398.672 508.125 398.453 505.781H398.078C397.922 507.75 397.531 509.703 396.906 511.641L389.594 534.422H406.797ZM485.547 555.516C485.547 564.422 482.969 571.312 477.812 576.188C472.656 581.094 465.188 583.547 455.406 583.547C448.938 583.547 443.812 582.625 440.031 580.781V568.312C444.969 571.188 449.953 572.625 454.984 572.625C459.984 572.625 463.859 571.297 466.609 568.641C469.359 566.016 470.734 562.438 470.734 557.906V554.109H470.547C467.172 559.484 462.188 562.172 455.594 562.172C449.469 562.172 444.609 560.016 441.016 555.703C437.422 551.391 435.625 545.609 435.625 538.359C435.625 530.234 437.625 523.781 441.625 519C445.625 514.219 450.891 511.828 457.422 511.828C463.266 511.828 467.641 514.078 470.547 518.578H470.734V513H485.547V555.516ZM470.922 537.938V534.141C470.922 531.109 470.016 528.531 468.203 526.406C466.422 524.25 464.094 523.172 461.219 523.172C457.938 523.172 455.359 524.453 453.484 527.016C451.609 529.578 450.672 533.188 450.672 537.844C450.672 541.844 451.562 545.016 453.344 547.359C455.125 549.672 457.562 550.828 460.656 550.828C463.719 550.828 466.188 549.656 468.062 547.312C469.969 544.938 470.922 541.812 470.922 537.938ZM541.047 541.219H509.734C510.234 548.188 514.625 551.672 522.906 551.672C528.188 551.672 532.828 550.422 536.828 547.922V558.609C532.391 560.984 526.625 562.172 519.531 562.172C511.781 562.172 505.766 560.031 501.484 555.75C497.203 551.438 495.062 545.438 495.062 537.75C495.062 529.781 497.375 523.469 502 518.812C506.625 514.156 512.312 511.828 519.062 511.828C526.062 511.828 531.469 513.906 535.281 518.062C539.125 522.219 541.047 527.859 541.047 534.984V541.219ZM527.312 532.125C527.312 525.25 524.531 521.812 518.969 521.812C516.594 521.812 514.531 522.797 512.781 524.766C511.062 526.734 510.016 529.188 509.641 532.125H527.312ZM596.219 561H581.453V534.328C581.453 526.891 578.797 523.172 573.484 523.172C570.922 523.172 568.812 524.156 567.156 526.125C565.5 528.094 564.672 530.594 564.672 533.625V561H549.859V513H564.672V520.594H564.859C568.391 514.75 573.531 511.828 580.281 511.828C590.906 511.828 596.219 518.422 596.219 531.609V561ZM654.953 561H640.141V554.391H639.953C636.578 559.578 631.625 562.172 625.094 562.172C619.094 562.172 614.266 560.062 610.609 555.844C606.953 551.594 605.125 545.672 605.125 538.078C605.125 530.141 607.141 523.781 611.172 519C615.203 514.219 620.484 511.828 627.016 511.828C633.203 511.828 637.516 514.047 639.953 518.484H640.141V489.938H654.953V561ZM640.422 537.656V534.047C640.422 530.922 639.516 528.328 637.703 526.266C635.891 524.203 633.531 523.172 630.625 523.172C627.344 523.172 624.781 524.469 622.938 527.062C621.094 529.625 620.172 533.156 620.172 537.656C620.172 541.875 621.062 545.125 622.844 547.406C624.625 549.688 627.094 550.828 630.25 550.828C633.25 550.828 635.688 549.625 637.562 547.219C639.469 544.812 640.422 541.625 640.422 537.656ZM707.359 561H693.344V554.109H693.156C689.938 559.484 685.172 562.172 678.859 562.172C674.203 562.172 670.531 560.859 667.844 558.234C665.188 555.578 663.859 552.047 663.859 547.641C663.859 538.328 669.375 532.953 680.406 531.516L693.438 529.781C693.438 524.531 690.594 521.906 684.906 521.906C679.188 521.906 673.75 523.609 668.594 527.016V515.859C670.656 514.797 673.469 513.859 677.031 513.047C680.625 512.234 683.891 511.828 686.828 511.828C700.516 511.828 707.359 518.656 707.359 532.312V561ZM693.438 541.5V538.266L684.719 539.391C679.906 540.016 677.5 542.188 677.5 545.906C677.5 547.594 678.078 548.984 679.234 550.078C680.422 551.141 682.016 551.672 684.016 551.672C686.797 551.672 689.062 550.719 690.812 548.812C692.562 546.875 693.438 544.438 693.438 541.5Z" fill="white"/>
<path d="M352.516 433V434H353.933L353.458 432.665L352.516 433ZM336.016 433L335.063 433.305L335.285 434H336.016V433ZM331.234 418.047L332.187 417.742L331.965 417.047H331.234V418.047ZM307.328 418.047V417.047H306.596L306.375 417.745L307.328 418.047ZM302.594 433V434H303.326L303.547 433.302L302.594 433ZM286.188 433L285.248 432.658L284.759 434H286.188V433ZM310.656 365.781V364.781H309.956L309.717 365.439L310.656 365.781ZM328.609 365.781L329.552 365.446L329.315 364.781H328.609V365.781ZM327.766 406.422V407.422H329.135L328.718 406.118L327.766 406.422ZM320.547 383.828L319.593 384.128L319.594 384.132L320.547 383.828ZM319.422 377.781L320.418 377.688L320.333 376.781H319.422V377.781ZM319.047 377.781V376.781H318.123L318.05 377.702L319.047 377.781ZM317.875 383.641L316.923 383.334L316.923 383.335L317.875 383.641ZM310.562 406.422L309.61 406.116L309.191 407.422H310.562V406.422ZM352.516 432H336.016V434H352.516V432ZM336.968 432.695L332.187 417.742L330.282 418.351L335.063 433.305L336.968 432.695ZM331.234 417.047H307.328V419.047H331.234V417.047ZM306.375 417.745L301.64 432.698L303.547 433.302L308.281 418.349L306.375 417.745ZM302.594 432H286.188V434H302.594V432ZM287.127 433.342L311.596 366.123L309.717 365.439L285.248 432.658L287.127 433.342ZM310.656 366.781H328.609V364.781H310.656V366.781ZM327.667 366.116L351.573 433.335L353.458 432.665L329.552 365.446L327.667 366.116ZM328.718 406.118L321.499 383.524L319.594 384.132L326.813 406.726L328.718 406.118ZM321.501 383.528C320.996 381.926 320.632 379.983 320.418 377.688L318.426 377.874C318.65 380.267 319.035 382.356 319.593 384.128L321.501 383.528ZM319.422 376.781H319.047V378.781H319.422V376.781ZM318.05 377.702C317.9 379.591 317.525 381.468 316.923 383.334L318.827 383.948C319.475 381.938 319.881 379.909 320.044 377.86L318.05 377.702ZM316.923 383.335L309.61 406.116L311.515 406.728L318.827 383.946L316.923 383.335ZM310.562 407.422H327.766V405.422H310.562V407.422ZM398.781 448.188L398.094 447.461L398.092 447.463L398.781 448.188ZM361 452.781H360V453.406L360.562 453.68L361 452.781ZM361 440.312L361.503 439.448L360 438.573V440.312H361ZM387.578 440.641L386.888 439.917L386.883 439.921L387.578 440.641ZM391.703 426.109H392.703V425.109H391.703V426.109ZM391.516 426.109V425.109H390.963L390.669 425.578L391.516 426.109ZM391.516 390.578L390.676 391.121L390.971 391.578H391.516V390.578ZM391.703 390.578V391.578H392.703V390.578H391.703ZM391.703 385V384H390.703V385H391.703ZM406.516 385H407.516V384H406.516V385ZM389.172 398.406L388.401 399.043L388.406 399.049L388.411 399.055L389.172 398.406ZM374.312 419.359L373.516 419.964L373.52 419.97L374.312 419.359ZM389.031 419.312L388.251 418.687L388.25 418.688L389.031 419.312ZM405.516 427.516C405.516 436.222 403.002 442.821 398.094 447.461L399.468 448.914C404.873 443.804 407.516 436.622 407.516 427.516H405.516ZM398.092 447.463C393.182 452.135 385.997 454.547 376.375 454.547V456.547C386.315 456.547 394.068 454.052 399.471 448.912L398.092 447.463ZM376.375 454.547C369.984 454.547 365.029 453.633 361.438 451.882L360.562 453.68C364.533 455.617 369.828 456.547 376.375 456.547V454.547ZM362 452.781V440.312H360V452.781H362ZM360.497 441.177C365.566 444.128 370.722 445.625 375.953 445.625V443.625C371.122 443.625 366.309 442.247 361.503 439.448L360.497 441.177ZM375.953 445.625C381.13 445.625 385.284 444.246 388.273 441.36L386.883 439.921C384.372 442.347 380.776 443.625 375.953 443.625V445.625ZM388.269 441.364C391.254 438.514 392.703 434.654 392.703 429.906H390.703C390.703 434.221 389.402 437.517 386.888 439.917L388.269 441.364ZM392.703 429.906V426.109H390.703V429.906H392.703ZM391.703 425.109H391.516V427.109H391.703V425.109ZM390.669 425.578C387.485 430.648 382.828 433.172 376.562 433.172V435.172C383.484 435.172 388.796 432.321 392.363 426.641L390.669 425.578ZM376.562 433.172C370.704 433.172 366.138 431.125 362.753 427.063L361.216 428.343C365.019 432.906 370.171 435.172 376.562 435.172V433.172ZM362.753 427.063C359.348 422.977 357.594 417.445 357.594 410.359H355.594C355.594 417.774 357.434 423.804 361.216 428.343L362.753 427.063ZM357.594 410.359C357.594 402.397 359.552 396.194 363.361 391.642L361.827 390.358C357.636 395.368 355.594 402.072 355.594 410.359H357.594ZM363.361 391.642C367.161 387.1 372.139 384.828 378.391 384.828V382.828C371.579 382.828 366.027 385.338 361.827 390.358L363.361 391.642ZM378.391 384.828C383.932 384.828 387.973 386.935 390.676 391.121L392.356 390.036C389.246 385.221 384.537 382.828 378.391 382.828V384.828ZM391.516 391.578H391.703V389.578H391.516V391.578ZM392.703 390.578V385H390.703V390.578H392.703ZM391.703 386H406.516V384H391.703V386ZM405.516 385V427.516H407.516V385H405.516ZM392.891 409.938V406.141H390.891V409.938H392.891ZM392.891 406.141C392.891 402.893 391.913 400.079 389.933 397.757L388.411 399.055C390.056 400.983 390.891 403.325 390.891 406.141H392.891ZM389.943 397.769C387.966 395.376 385.351 394.172 382.188 394.172V396.172C384.774 396.172 386.816 397.124 388.401 399.043L389.943 397.769ZM382.188 394.172C378.6 394.172 375.717 395.595 373.646 398.425L375.26 399.606C376.94 397.311 379.213 396.172 382.188 396.172V394.172ZM373.646 398.425C371.599 401.222 370.641 405.07 370.641 409.844H372.641C372.641 405.305 373.557 401.934 375.26 399.606L373.646 398.425ZM370.641 409.844C370.641 413.985 371.563 417.394 373.516 419.964L375.109 418.754C373.5 416.638 372.641 413.703 372.641 409.844H370.641ZM373.52 419.97C375.504 422.544 378.243 423.828 381.625 423.828V421.828C378.82 421.828 376.684 420.799 375.105 418.749L373.52 419.97ZM381.625 423.828C384.984 423.828 387.743 422.524 389.812 419.937L388.25 418.688C386.57 420.789 384.391 421.828 381.625 421.828V423.828ZM389.811 419.938C391.895 417.342 392.891 413.977 392.891 409.938H390.891C390.891 413.648 389.98 416.533 388.251 418.687L389.811 419.938ZM462.016 413.219V414.219H463.016V413.219H462.016ZM430.703 413.219V412.219H429.629L429.706 413.29L430.703 413.219ZM457.797 419.922H458.797V418.118L457.267 419.074L457.797 419.922ZM457.797 430.609L458.269 431.491L458.797 431.208V430.609H457.797ZM422.453 427.75L421.743 428.455L421.746 428.457L422.453 427.75ZM456.25 390.062L455.513 390.738L455.516 390.741L456.25 390.062ZM448.281 404.125V405.125H449.281V404.125H448.281ZM433.75 396.766L433.003 396.101L432.997 396.108L433.75 396.766ZM430.609 404.125L429.617 403.998L429.474 405.125H430.609V404.125ZM462.016 412.219H430.703V414.219H462.016V412.219ZM429.706 413.29C429.97 416.98 431.283 419.884 433.749 421.842C436.189 423.778 439.612 424.672 443.875 424.672V422.672C439.856 422.672 436.944 421.824 434.993 420.275C433.069 418.748 431.936 416.426 431.701 413.147L429.706 413.29ZM443.875 424.672C449.321 424.672 454.149 423.381 458.327 420.77L457.267 419.074C453.444 421.463 448.992 422.672 443.875 422.672V424.672ZM456.797 419.922V430.609H458.797V419.922H456.797ZM457.325 429.728C453.08 432 447.493 433.172 440.5 433.172V435.172C447.695 435.172 453.639 433.969 458.269 431.491L457.325 429.728ZM440.5 433.172C432.937 433.172 427.205 431.088 423.16 427.043L421.746 428.457C426.263 432.975 432.563 435.172 440.5 435.172V433.172ZM423.163 427.045C419.114 422.967 417.031 417.247 417.031 409.75H415.031C415.031 417.628 417.23 423.908 421.743 428.455L423.163 427.045ZM417.031 409.75C417.031 401.985 419.278 395.947 423.678 391.517L422.259 390.108C417.41 394.99 415.031 401.577 415.031 409.75H417.031ZM423.678 391.517C428.11 387.056 433.539 384.828 440.031 384.828V382.828C433.023 382.828 427.078 385.257 422.259 390.108L423.678 391.517ZM440.031 384.828C446.824 384.828 451.934 386.837 455.513 390.738L456.987 389.387C452.941 384.976 447.239 382.828 440.031 382.828V384.828ZM455.516 390.741C459.148 394.669 461.016 400.043 461.016 406.984H463.016C463.016 399.675 461.04 393.769 456.984 389.384L455.516 390.741ZM461.016 406.984V413.219H463.016V406.984H461.016ZM449.281 404.125C449.281 400.579 448.568 397.733 446.973 395.762C445.345 393.749 442.936 392.812 439.938 392.812V394.812C442.502 394.812 444.265 395.594 445.418 397.02C446.604 398.485 447.281 400.796 447.281 404.125H449.281ZM439.938 392.812C437.244 392.812 434.919 393.945 433.003 396.101L434.497 397.43C436.081 395.649 437.881 394.812 439.938 394.812V392.812ZM432.997 396.108C431.131 398.245 430.014 400.891 429.617 403.998L431.601 404.252C431.955 401.484 432.932 399.223 434.503 397.423L432.997 396.108ZM430.609 405.125H448.281V403.125H430.609V405.125ZM517.188 433V434H518.188V433H517.188ZM502.422 433H501.422V434H502.422V433ZM485.641 433V434H486.641V433H485.641ZM470.828 433H469.828V434H470.828V433ZM470.828 385V384H469.828V385H470.828ZM485.641 385H486.641V384H485.641V385ZM485.641 392.594H484.641V393.594H485.641V392.594ZM485.828 392.594V393.594H486.392L486.684 393.111L485.828 392.594ZM517.188 432H502.422V434H517.188V432ZM503.422 433V406.328H501.422V433H503.422ZM503.422 406.328C503.422 402.521 502.747 399.485 501.243 397.38C499.695 395.212 497.372 394.172 494.453 394.172V396.172C496.847 396.172 498.508 396.991 499.616 398.542C500.768 400.155 501.422 402.698 501.422 406.328H503.422ZM494.453 394.172C491.594 394.172 489.205 395.288 487.36 397.481L488.89 398.769C490.357 397.025 492.187 396.172 494.453 396.172V394.172ZM487.36 397.481C485.526 399.661 484.641 402.402 484.641 405.625H486.641C486.641 402.785 487.412 400.526 488.89 398.769L487.36 397.481ZM484.641 405.625V433H486.641V405.625H484.641ZM485.641 432H470.828V434H485.641V432ZM471.828 433V385H469.828V433H471.828ZM470.828 386H485.641V384H470.828V386ZM484.641 385V392.594H486.641V385H484.641ZM485.641 393.594H485.828V391.594H485.641V393.594ZM486.684 393.111C490.037 387.563 494.855 384.828 501.25 384.828V382.828C494.145 382.828 488.682 385.937 484.972 392.077L486.684 393.111ZM501.25 384.828C506.344 384.828 510.005 386.398 512.424 389.401C514.877 392.445 516.188 397.124 516.188 403.609H518.188C518.188 396.908 516.842 391.696 513.982 388.146C511.089 384.555 506.781 382.828 501.25 382.828V384.828ZM516.188 403.609V433H518.188V403.609H516.188ZM575.922 433V434H576.922V433H575.922ZM561.109 433H560.109V434H561.109V433ZM561.109 426.391H562.109V425.391H561.109V426.391ZM560.922 426.391V425.391H560.379L560.084 425.845L560.922 426.391ZM531.578 427.844L530.82 428.496L530.822 428.499L531.578 427.844ZM560.922 390.484L560.045 390.966L560.33 391.484H560.922V390.484ZM561.109 390.484V391.484H562.109V390.484H561.109ZM561.109 361.938V360.938H560.109V361.938H561.109ZM575.922 361.938H576.922V360.938H575.922V361.938ZM543.906 399.062L544.718 399.647L544.721 399.642L543.906 399.062ZM558.531 419.219L557.747 418.598L557.742 418.604L558.531 419.219ZM575.922 432H561.109V434H575.922V432ZM562.109 433V426.391H560.109V433H562.109ZM561.109 425.391H560.922V427.391H561.109V425.391ZM560.084 425.845C556.905 430.731 552.278 433.172 546.062 433.172V435.172C552.91 435.172 558.189 432.425 561.76 426.936L560.084 425.845ZM546.062 433.172C540.328 433.172 535.785 431.171 532.334 427.189L530.822 428.499C534.684 432.954 539.797 435.172 546.062 435.172V433.172ZM532.336 427.192C528.884 423.179 527.094 417.518 527.094 410.078H525.094C525.094 417.826 526.96 424.009 530.82 428.496L532.336 427.192ZM527.094 410.078C527.094 402.311 529.063 396.201 532.905 391.645L531.376 390.355C527.156 395.361 525.094 401.97 525.094 410.078H527.094ZM532.905 391.645C536.737 387.1 541.733 384.828 547.984 384.828V382.828C541.173 382.828 535.607 385.338 531.376 390.355L532.905 391.645ZM547.984 384.828C553.903 384.828 557.825 386.924 560.045 390.966L561.798 390.003C559.143 385.169 554.441 382.828 547.984 382.828V384.828ZM560.922 391.484H561.109V389.484H560.922V391.484ZM562.109 390.484V361.938H560.109V390.484H562.109ZM561.109 362.938H575.922V360.938H561.109V362.938ZM574.922 361.938V433H576.922V361.938H574.922ZM562.391 409.656V406.047H560.391V409.656H562.391ZM562.391 406.047C562.391 402.715 561.418 399.876 559.423 397.606L557.921 398.926C559.551 400.781 560.391 403.129 560.391 406.047H562.391ZM559.423 397.606C557.408 395.313 554.769 394.172 551.594 394.172V396.172C554.231 396.172 556.31 397.093 557.921 398.926L559.423 397.606ZM551.594 394.172C548.001 394.172 545.129 395.616 543.091 398.483L544.721 399.642C546.371 397.322 548.624 396.172 551.594 396.172V394.172ZM543.095 398.478C541.086 401.27 540.141 405.033 540.141 409.656H542.141C542.141 405.28 543.039 401.98 544.718 399.647L543.095 398.478ZM540.141 409.656C540.141 413.999 541.055 417.5 543.024 420.022L544.601 418.791C543.007 416.75 542.141 413.751 542.141 409.656H540.141ZM543.024 420.022C545.014 422.57 547.787 423.828 551.219 423.828V421.828C548.338 421.828 546.174 420.805 544.601 418.791L543.024 420.022ZM551.219 423.828C554.533 423.828 557.259 422.478 559.32 419.833L557.742 418.604C556.053 420.772 553.904 421.828 551.219 421.828V423.828ZM559.315 419.84C561.398 417.211 562.391 413.784 562.391 409.656H560.391C560.391 413.466 559.477 416.414 557.747 418.598L559.315 419.84ZM628.328 433V434H629.328V433H628.328ZM614.312 433H613.312V434H614.312V433ZM614.312 426.109H615.312V425.109H614.312V426.109ZM614.125 426.109V425.109H613.558L613.267 425.596L614.125 426.109ZM588.812 430.234L588.105 430.942L588.114 430.95L588.812 430.234ZM601.375 403.516L601.504 404.507L601.507 404.507L601.375 403.516ZM614.406 401.781L614.538 402.773L615.406 402.657V401.781H614.406ZM589.562 399.016H588.562V400.875L590.114 399.85L589.562 399.016ZM589.562 387.859L589.105 386.97L588.562 387.25V387.859H589.562ZM598 385.047L597.779 384.071L597.778 384.072L598 385.047ZM614.406 410.266H615.406V409.128L614.278 409.274L614.406 410.266ZM605.688 411.391L605.56 410.399L605.559 410.399L605.688 411.391ZM600.203 422.078L599.516 422.805L599.526 422.814L599.536 422.823L600.203 422.078ZM611.781 420.812L612.518 421.489L612.523 421.483L611.781 420.812ZM628.328 432H614.312V434H628.328V432ZM615.312 433V426.109H613.312V433H615.312ZM614.312 425.109H614.125V427.109H614.312V425.109ZM613.267 425.596C610.231 430.666 605.792 433.172 599.828 433.172V435.172C606.489 435.172 611.582 432.303 614.983 426.623L613.267 425.596ZM599.828 433.172C595.367 433.172 591.97 431.92 589.511 429.519L588.114 430.95C591.03 433.799 594.977 435.172 599.828 435.172V433.172ZM589.52 429.527C587.083 427.091 585.828 423.831 585.828 419.641H583.828C583.828 424.263 585.229 428.065 588.105 430.941L589.52 429.527ZM585.828 419.641C585.828 415.194 587.138 411.802 589.663 409.341C592.21 406.858 596.111 405.21 601.504 404.507L601.246 402.524C595.608 403.259 591.235 405.017 588.267 407.909C585.277 410.823 583.828 414.775 583.828 419.641H585.828ZM601.507 404.507L614.538 402.773L614.274 400.79L601.243 402.524L601.507 404.507ZM615.406 401.781C615.406 398.981 614.644 396.702 612.952 395.14C611.275 393.592 608.854 392.906 605.875 392.906V394.906C608.584 394.906 610.429 395.533 611.595 396.61C612.747 397.673 613.406 399.332 613.406 401.781H615.406ZM605.875 392.906C599.944 392.906 594.317 394.676 589.011 398.181L590.114 399.85C595.12 396.543 600.368 394.906 605.875 394.906V392.906ZM590.562 399.016V387.859H588.562V399.016H590.562ZM590.02 388.748C591.978 387.74 594.701 386.825 598.222 386.022L597.778 384.072C594.174 384.894 591.272 385.854 589.105 386.97L590.02 388.748ZM598.221 386.022C601.759 385.222 604.949 384.828 607.797 384.828V382.828C604.769 382.828 601.428 383.247 597.779 384.071L598.221 386.022ZM607.797 384.828C614.487 384.828 619.321 386.496 622.489 389.657C625.657 392.818 627.328 397.639 627.328 404.312H629.328C629.328 397.33 627.578 391.909 623.902 388.241C620.226 384.574 614.794 382.828 607.797 382.828V384.828ZM627.328 404.312V433H629.328V404.312H627.328ZM615.406 413.5V410.266H613.406V413.5H615.406ZM614.278 409.274L605.56 410.399L605.815 412.382L614.534 411.257L614.278 409.274ZM605.559 410.399C603.045 410.725 601.015 411.472 599.603 412.746C598.158 414.05 597.469 415.81 597.469 417.906H599.469C599.469 416.284 599.982 415.098 600.943 414.231C601.938 413.333 603.517 412.681 605.816 412.382L605.559 410.399ZM597.469 417.906C597.469 419.85 598.147 421.51 599.516 422.805L600.89 421.352C599.947 420.459 599.469 419.337 599.469 417.906H597.469ZM599.536 422.823C600.951 424.089 602.803 424.672 604.984 424.672V422.672C603.165 422.672 601.831 422.193 600.87 421.333L599.536 422.823ZM604.984 424.672C608.022 424.672 610.563 423.618 612.518 421.489L611.045 420.136C609.499 421.819 607.509 422.672 604.984 422.672V424.672ZM612.523 421.483C614.46 419.338 615.406 416.652 615.406 413.5H613.406C613.406 416.223 612.602 418.412 611.039 420.142L612.523 421.483ZM431.547 561V562H432.964L432.489 560.665L431.547 561ZM415.047 561L414.094 561.305L414.317 562H415.047V561ZM410.266 546.047L411.218 545.742L410.996 545.047H410.266V546.047ZM386.359 546.047V545.047H385.627L385.406 545.745L386.359 546.047ZM381.625 561V562H382.357L382.578 561.302L381.625 561ZM365.219 561L364.279 560.658L363.791 562H365.219V561ZM389.688 493.781V492.781H388.987L388.748 493.439L389.688 493.781ZM407.641 493.781L408.583 493.446L408.346 492.781H407.641V493.781ZM406.797 534.422V535.422H408.166L407.749 534.118L406.797 534.422ZM399.578 511.828L398.624 512.128L398.626 512.132L399.578 511.828ZM398.453 505.781L399.449 505.688L399.364 504.781H398.453V505.781ZM398.078 505.781V504.781H397.154L397.081 505.702L398.078 505.781ZM396.906 511.641L395.955 511.334L395.954 511.335L396.906 511.641ZM389.594 534.422L388.642 534.116L388.223 535.422H389.594V534.422ZM431.547 560H415.047V562H431.547V560ZM415.999 560.695L411.218 545.742L409.313 546.351L414.094 561.305L415.999 560.695ZM410.266 545.047H386.359V547.047H410.266V545.047ZM385.406 545.745L380.672 560.698L382.578 561.302L387.313 546.349L385.406 545.745ZM381.625 560H365.219V562H381.625V560ZM366.158 561.342L390.627 494.123L388.748 493.439L364.279 560.658L366.158 561.342ZM389.688 494.781H407.641V492.781H389.688V494.781ZM406.698 494.116L430.605 561.335L432.489 560.665L408.583 493.446L406.698 494.116ZM407.749 534.118L400.531 511.524L398.626 512.132L405.844 534.726L407.749 534.118ZM400.532 511.528C400.028 509.926 399.663 507.983 399.449 505.688L397.457 505.874C397.681 508.267 398.066 510.356 398.624 512.128L400.532 511.528ZM398.453 504.781H398.078V506.781H398.453V504.781ZM397.081 505.702C396.931 507.591 396.556 509.468 395.955 511.334L397.858 511.948C398.506 509.938 398.912 507.909 399.075 505.86L397.081 505.702ZM395.954 511.335L388.642 534.116L390.546 534.728L397.858 511.946L395.954 511.335ZM389.594 535.422H406.797V533.422H389.594V535.422ZM477.812 576.188L477.125 575.461L477.123 575.463L477.812 576.188ZM440.031 580.781H439.031V581.406L439.593 581.68L440.031 580.781ZM440.031 568.312L440.534 567.448L439.031 566.573V568.312H440.031ZM466.609 568.641L465.919 567.917L465.915 567.921L466.609 568.641ZM470.734 554.109H471.734V553.109H470.734V554.109ZM470.547 554.109V553.109H469.994L469.7 553.578L470.547 554.109ZM470.547 518.578L469.707 519.121L470.002 519.578H470.547V518.578ZM470.734 518.578V519.578H471.734V518.578H470.734ZM470.734 513V512H469.734V513H470.734ZM485.547 513H486.547V512H485.547V513ZM468.203 526.406L467.432 527.043L467.437 527.049L467.442 527.055L468.203 526.406ZM453.344 547.359L452.548 547.964L452.552 547.97L453.344 547.359ZM468.062 547.312L467.283 546.687L467.282 546.688L468.062 547.312ZM484.547 555.516C484.547 564.222 482.034 570.821 477.125 575.461L478.5 576.914C483.904 571.804 486.547 564.622 486.547 555.516H484.547ZM477.123 575.463C472.213 580.135 465.028 582.547 455.406 582.547V584.547C465.347 584.547 473.099 582.052 478.502 576.912L477.123 575.463ZM455.406 582.547C449.015 582.547 444.061 581.633 440.47 579.882L439.593 581.68C443.564 583.617 448.86 584.547 455.406 584.547V582.547ZM441.031 580.781V568.312H439.031V580.781H441.031ZM439.528 569.177C444.597 572.128 449.753 573.625 454.984 573.625V571.625C450.153 571.625 445.34 570.247 440.534 567.448L439.528 569.177ZM454.984 573.625C460.161 573.625 464.316 572.246 467.304 569.36L465.915 567.921C463.403 570.347 459.808 571.625 454.984 571.625V573.625ZM467.3 569.364C470.285 566.514 471.734 562.654 471.734 557.906H469.734C469.734 562.221 468.434 565.517 465.919 567.917L467.3 569.364ZM471.734 557.906V554.109H469.734V557.906H471.734ZM470.734 553.109H470.547V555.109H470.734V553.109ZM469.7 553.578C466.516 558.648 461.86 561.172 455.594 561.172V563.172C462.515 563.172 467.827 560.321 471.394 554.641L469.7 553.578ZM455.594 561.172C449.735 561.172 445.169 559.125 441.784 555.063L440.247 556.343C444.05 560.906 449.203 563.172 455.594 563.172V561.172ZM441.784 555.063C438.379 550.977 436.625 545.445 436.625 538.359H434.625C434.625 545.774 436.465 551.804 440.247 556.343L441.784 555.063ZM436.625 538.359C436.625 530.397 438.583 524.194 442.392 519.642L440.858 518.358C436.667 523.368 434.625 530.072 434.625 538.359H436.625ZM442.392 519.642C446.192 515.1 451.171 512.828 457.422 512.828V510.828C450.611 510.828 445.058 513.338 440.858 518.358L442.392 519.642ZM457.422 512.828C462.963 512.828 467.004 514.935 469.707 519.121L471.387 518.036C468.277 513.221 463.568 510.828 457.422 510.828V512.828ZM470.547 519.578H470.734V517.578H470.547V519.578ZM471.734 518.578V513H469.734V518.578H471.734ZM470.734 514H485.547V512H470.734V514ZM484.547 513V555.516H486.547V513H484.547ZM471.922 537.938V534.141H469.922V537.938H471.922ZM471.922 534.141C471.922 530.893 470.944 528.079 468.964 525.757L467.442 527.055C469.087 528.983 469.922 531.325 469.922 534.141H471.922ZM468.974 525.769C466.997 523.376 464.382 522.172 461.219 522.172V524.172C463.805 524.172 465.847 525.124 467.432 527.043L468.974 525.769ZM461.219 522.172C457.631 522.172 454.748 523.595 452.677 526.425L454.291 527.606C455.971 525.311 458.244 524.172 461.219 524.172V522.172ZM452.677 526.425C450.631 529.222 449.672 533.07 449.672 537.844H451.672C451.672 533.305 452.588 529.934 454.291 527.606L452.677 526.425ZM449.672 537.844C449.672 541.985 450.594 545.394 452.548 547.964L454.14 546.754C452.531 544.638 451.672 541.703 451.672 537.844H449.672ZM452.552 547.97C454.535 550.544 457.274 551.828 460.656 551.828V549.828C457.851 549.828 455.715 548.799 454.136 546.749L452.552 547.97ZM460.656 551.828C464.015 551.828 466.774 550.524 468.843 547.937L467.282 546.688C465.601 548.789 463.422 549.828 460.656 549.828V551.828ZM468.842 547.938C470.926 545.342 471.922 541.977 471.922 537.938H469.922C469.922 541.648 469.011 544.533 467.283 546.687L468.842 547.938ZM541.047 541.219V542.219H542.047V541.219H541.047ZM509.734 541.219V540.219H508.66L508.737 541.29L509.734 541.219ZM536.828 547.922H537.828V546.118L536.298 547.074L536.828 547.922ZM536.828 558.609L537.3 559.491L537.828 559.208V558.609H536.828ZM501.484 555.75L500.775 556.455L500.777 556.457L501.484 555.75ZM535.281 518.062L534.544 518.738L534.547 518.741L535.281 518.062ZM527.312 532.125V533.125H528.312V532.125H527.312ZM512.781 524.766L512.034 524.101L512.028 524.108L512.781 524.766ZM509.641 532.125L508.649 531.998L508.505 533.125H509.641V532.125ZM541.047 540.219H509.734V542.219H541.047V540.219ZM508.737 541.29C509.002 544.98 510.314 547.884 512.781 549.842C515.22 551.778 518.644 552.672 522.906 552.672V550.672C518.888 550.672 515.975 549.824 514.024 548.275C512.1 546.748 510.967 544.426 510.732 541.147L508.737 541.29ZM522.906 552.672C528.352 552.672 533.181 551.381 537.358 548.77L536.298 547.074C532.476 549.463 528.023 550.672 522.906 550.672V552.672ZM535.828 547.922V558.609H537.828V547.922H535.828ZM536.356 557.728C532.111 560 526.524 561.172 519.531 561.172V563.172C526.726 563.172 532.67 561.969 537.3 559.491L536.356 557.728ZM519.531 561.172C511.969 561.172 506.237 559.088 502.191 555.043L500.777 556.457C505.295 560.975 511.594 563.172 519.531 563.172V561.172ZM502.194 555.045C498.145 550.967 496.062 545.247 496.062 537.75H494.062C494.062 545.628 496.261 551.908 500.775 556.455L502.194 555.045ZM496.062 537.75C496.062 529.985 498.309 523.947 502.709 519.517L501.291 518.108C496.441 522.99 494.062 529.577 494.062 537.75H496.062ZM502.709 519.517C507.141 515.056 512.57 512.828 519.062 512.828V510.828C512.055 510.828 506.109 513.257 501.291 518.108L502.709 519.517ZM519.062 512.828C525.855 512.828 530.965 514.837 534.544 518.738L536.018 517.387C531.972 512.976 526.27 510.828 519.062 510.828V512.828ZM534.547 518.741C538.179 522.669 540.047 528.043 540.047 534.984H542.047C542.047 527.675 540.071 521.769 536.015 517.384L534.547 518.741ZM540.047 534.984V541.219H542.047V534.984H540.047ZM528.312 532.125C528.312 528.579 527.599 525.733 526.004 523.762C524.376 521.749 521.967 520.812 518.969 520.812V522.812C521.533 522.812 523.296 523.594 524.449 525.02C525.635 526.485 526.312 528.796 526.312 532.125H528.312ZM518.969 520.812C516.275 520.812 513.95 521.945 512.034 524.101L513.529 525.43C515.112 523.649 516.912 522.812 518.969 522.812V520.812ZM512.028 524.108C510.162 526.245 509.045 528.891 508.649 531.998L510.633 532.252C510.986 529.484 511.963 527.223 513.535 525.423L512.028 524.108ZM509.641 533.125H527.312V531.125H509.641V533.125ZM596.219 561V562H597.219V561H596.219ZM581.453 561H580.453V562H581.453V561ZM564.672 561V562H565.672V561H564.672ZM549.859 561H548.859V562H549.859V561ZM549.859 513V512H548.859V513H549.859ZM564.672 513H565.672V512H564.672V513ZM564.672 520.594H563.672V521.594H564.672V520.594ZM564.859 520.594V521.594H565.423L565.715 521.111L564.859 520.594ZM596.219 560H581.453V562H596.219V560ZM582.453 561V534.328H580.453V561H582.453ZM582.453 534.328C582.453 530.521 581.779 527.485 580.275 525.38C578.726 523.212 576.403 522.172 573.484 522.172V524.172C575.878 524.172 577.539 524.991 578.647 526.542C579.799 528.155 580.453 530.698 580.453 534.328H582.453ZM573.484 522.172C570.625 522.172 568.236 523.288 566.391 525.481L567.921 526.769C569.389 525.025 571.218 524.172 573.484 524.172V522.172ZM566.391 525.481C564.557 527.661 563.672 530.402 563.672 533.625H565.672C565.672 530.785 566.443 528.526 567.921 526.769L566.391 525.481ZM563.672 533.625V561H565.672V533.625H563.672ZM564.672 560H549.859V562H564.672V560ZM550.859 561V513H548.859V561H550.859ZM549.859 514H564.672V512H549.859V514ZM563.672 513V520.594H565.672V513H563.672ZM564.672 521.594H564.859V519.594H564.672V521.594ZM565.715 521.111C569.068 515.563 573.886 512.828 580.281 512.828V510.828C573.176 510.828 567.713 513.937 564.004 520.077L565.715 521.111ZM580.281 512.828C585.375 512.828 589.036 514.398 591.456 517.401C593.908 520.445 595.219 525.124 595.219 531.609H597.219C597.219 524.908 595.873 519.696 593.013 516.146C590.12 512.555 585.812 510.828 580.281 510.828V512.828ZM595.219 531.609V561H597.219V531.609H595.219ZM654.953 561V562H655.953V561H654.953ZM640.141 561H639.141V562H640.141V561ZM640.141 554.391H641.141V553.391H640.141V554.391ZM639.953 554.391V553.391H639.411L639.115 553.845L639.953 554.391ZM610.609 555.844L609.851 556.496L609.854 556.499L610.609 555.844ZM639.953 518.484L639.077 518.966L639.361 519.484H639.953V518.484ZM640.141 518.484V519.484H641.141V518.484H640.141ZM640.141 489.938V488.938H639.141V489.938H640.141ZM654.953 489.938H655.953V488.938H654.953V489.938ZM622.938 527.062L623.749 527.647L623.753 527.642L622.938 527.062ZM637.562 547.219L636.779 546.598L636.774 546.604L637.562 547.219ZM654.953 560H640.141V562H654.953V560ZM641.141 561V554.391H639.141V561H641.141ZM640.141 553.391H639.953V555.391H640.141V553.391ZM639.115 553.845C635.936 558.731 631.309 561.172 625.094 561.172V563.172C631.941 563.172 637.22 560.425 640.791 554.936L639.115 553.845ZM625.094 561.172C619.359 561.172 614.816 559.171 611.365 555.189L609.854 556.499C613.715 560.954 618.828 563.172 625.094 563.172V561.172ZM611.367 555.192C607.915 551.179 606.125 545.518 606.125 538.078H604.125C604.125 545.826 605.991 552.009 609.851 556.496L611.367 555.192ZM606.125 538.078C606.125 530.311 608.094 524.201 611.936 519.645L610.407 518.355C606.187 523.361 604.125 529.97 604.125 538.078H606.125ZM611.936 519.645C615.768 515.1 620.764 512.828 627.016 512.828V510.828C620.205 510.828 614.638 513.338 610.407 518.355L611.936 519.645ZM627.016 512.828C632.934 512.828 636.857 514.924 639.077 518.966L640.83 518.003C638.175 513.169 633.472 510.828 627.016 510.828V512.828ZM639.953 519.484H640.141V517.484H639.953V519.484ZM641.141 518.484V489.938H639.141V518.484H641.141ZM640.141 490.938H654.953V488.938H640.141V490.938ZM653.953 489.938V561H655.953V489.938H653.953ZM641.422 537.656V534.047H639.422V537.656H641.422ZM641.422 534.047C641.422 530.715 640.449 527.876 638.454 525.606L636.952 526.926C638.582 528.781 639.422 531.129 639.422 534.047H641.422ZM638.454 525.606C636.44 523.313 633.8 522.172 630.625 522.172V524.172C633.263 524.172 635.342 525.093 636.952 526.926L638.454 525.606ZM630.625 522.172C627.032 522.172 624.161 523.616 622.122 526.483L623.753 527.642C625.402 525.322 627.656 524.172 630.625 524.172V522.172ZM622.126 526.478C620.117 529.27 619.172 533.033 619.172 537.656H621.172C621.172 533.28 622.07 529.98 623.749 527.647L622.126 526.478ZM619.172 537.656C619.172 541.999 620.087 545.5 622.056 548.022L623.632 546.791C622.038 544.75 621.172 541.751 621.172 537.656H619.172ZM622.056 548.022C624.045 550.57 626.818 551.828 630.25 551.828V549.828C627.37 549.828 625.205 548.805 623.632 546.791L622.056 548.022ZM630.25 551.828C633.564 551.828 636.291 550.478 638.351 547.833L636.774 546.604C635.084 548.772 632.936 549.828 630.25 549.828V551.828ZM638.346 547.84C640.429 545.211 641.422 541.784 641.422 537.656H639.422C639.422 541.466 638.508 544.414 636.779 546.598L638.346 547.84ZM707.359 561V562H708.359V561H707.359ZM693.344 561H692.344V562H693.344V561ZM693.344 554.109H694.344V553.109H693.344V554.109ZM693.156 554.109V553.109H692.589L692.298 553.596L693.156 554.109ZM667.844 558.234L667.137 558.942L667.145 558.95L667.844 558.234ZM680.406 531.516L680.535 532.507L680.538 532.507L680.406 531.516ZM693.438 529.781L693.569 530.773L694.438 530.657V529.781H693.438ZM668.594 527.016H667.594V528.875L669.145 527.85L668.594 527.016ZM668.594 515.859L668.136 514.97L667.594 515.25V515.859H668.594ZM677.031 513.047L676.811 512.071L676.809 512.072L677.031 513.047ZM693.438 538.266H694.438V537.128L693.31 537.274L693.438 538.266ZM684.719 539.391L684.591 538.399L684.59 538.399L684.719 539.391ZM679.234 550.078L678.547 550.805L678.557 550.814L678.568 550.823L679.234 550.078ZM690.812 548.812L691.549 549.489L691.555 549.483L690.812 548.812ZM707.359 560H693.344V562H707.359V560ZM694.344 561V554.109H692.344V561H694.344ZM693.344 553.109H693.156V555.109H693.344V553.109ZM692.298 553.596C689.262 558.666 684.824 561.172 678.859 561.172V563.172C685.52 563.172 690.613 560.303 694.014 554.623L692.298 553.596ZM678.859 561.172C674.398 561.172 671.001 559.92 668.542 557.519L667.145 558.95C670.062 561.799 674.008 563.172 678.859 563.172V561.172ZM668.551 557.527C666.114 555.091 664.859 551.831 664.859 547.641H662.859C662.859 552.263 664.261 556.065 667.137 558.941L668.551 557.527ZM664.859 547.641C664.859 543.194 666.169 539.802 668.694 537.341C671.242 534.858 675.142 533.21 680.535 532.507L680.277 530.524C674.639 531.259 670.266 533.017 667.298 535.909C664.308 538.823 662.859 542.775 662.859 547.641H664.859ZM680.538 532.507L693.569 530.773L693.306 528.79L680.274 530.524L680.538 532.507ZM694.438 529.781C694.438 526.981 693.675 524.702 691.983 523.14C690.306 521.592 687.885 520.906 684.906 520.906V522.906C687.615 522.906 689.46 523.533 690.626 524.61C691.778 525.673 692.438 527.332 692.438 529.781H694.438ZM684.906 520.906C678.976 520.906 673.349 522.676 668.043 526.181L669.145 527.85C674.151 524.543 679.399 522.906 684.906 522.906V520.906ZM669.594 527.016V515.859H667.594V527.016H669.594ZM669.052 516.748C671.01 515.74 673.732 514.825 677.254 514.022L676.809 512.072C673.206 512.894 670.303 513.854 668.136 514.97L669.052 516.748ZM677.252 514.022C680.791 513.222 683.981 512.828 686.828 512.828V510.828C683.8 510.828 680.459 511.247 676.811 512.071L677.252 514.022ZM686.828 512.828C693.518 512.828 698.352 514.496 701.52 517.657C704.688 520.818 706.359 525.639 706.359 532.312H708.359C708.359 525.33 706.609 519.909 702.933 516.241C699.257 512.574 693.825 510.828 686.828 510.828V512.828ZM706.359 532.312V561H708.359V532.312H706.359ZM694.438 541.5V538.266H692.438V541.5H694.438ZM693.31 537.274L684.591 538.399L684.847 540.382L693.565 539.257L693.31 537.274ZM684.59 538.399C682.077 538.725 680.047 539.472 678.635 540.746C677.19 542.05 676.5 543.81 676.5 545.906H678.5C678.5 544.284 679.014 543.098 679.975 542.231C680.969 541.333 682.548 540.681 684.848 540.382L684.59 538.399ZM676.5 545.906C676.5 547.85 677.178 549.51 678.547 550.805L679.922 549.352C678.978 548.459 678.5 547.337 678.5 545.906H676.5ZM678.568 550.823C679.982 552.089 681.835 552.672 684.016 552.672V550.672C682.197 550.672 680.862 550.193 679.901 549.333L678.568 550.823ZM684.016 552.672C687.053 552.672 689.594 551.618 691.549 549.489L690.076 548.136C688.531 549.819 686.54 550.672 684.016 550.672V552.672ZM691.555 549.483C693.492 547.338 694.438 544.652 694.438 541.5H692.438C692.438 544.223 691.633 546.412 690.07 548.142L691.555 549.483Z" fill="white"/>
<path d="M164.797 208V209H166.214L165.739 207.665L164.797 208ZM148.297 208L147.344 208.305L147.567 209H148.297V208ZM143.516 193.047L144.468 192.742L144.246 192.047H143.516V193.047ZM119.609 193.047V192.047H118.877L118.656 192.745L119.609 193.047ZM114.875 208V209H115.607L115.828 208.302L114.875 208ZM98.4688 208L97.5291 207.658L97.0405 209H98.4688V208ZM122.938 140.781V139.781H122.237L121.998 140.439L122.938 140.781ZM140.891 140.781L141.833 140.446L141.596 139.781H140.891V140.781ZM140.047 181.422V182.422H141.416L140.999 181.118L140.047 181.422ZM132.828 158.828L131.874 159.128L131.876 159.132L132.828 158.828ZM131.703 152.781L132.699 152.688L132.614 151.781H131.703V152.781ZM131.328 152.781V151.781H130.404L130.331 152.702L131.328 152.781ZM130.156 158.641L129.205 158.334L129.204 158.335L130.156 158.641ZM122.844 181.422L121.892 181.116L121.473 182.422H122.844V181.422ZM164.797 207H148.297V209H164.797V207ZM149.249 207.695L144.468 192.742L142.563 193.351L147.344 208.305L149.249 207.695ZM143.516 192.047H119.609V194.047H143.516V192.047ZM118.656 192.745L113.922 207.698L115.828 208.302L120.563 193.349L118.656 192.745ZM114.875 207H98.4688V209H114.875V207ZM99.4084 208.342L123.877 141.123L121.998 140.439L97.5291 207.658L99.4084 208.342ZM122.938 141.781H140.891V139.781H122.938V141.781ZM139.948 141.116L163.855 208.335L165.739 207.665L141.833 140.446L139.948 141.116ZM140.999 181.118L133.781 158.524L131.876 159.132L139.094 181.726L140.999 181.118ZM133.782 158.528C133.278 156.926 132.913 154.983 132.699 152.688L130.707 152.874C130.931 155.267 131.316 157.356 131.874 159.128L133.782 158.528ZM131.703 151.781H131.328V153.781H131.703V151.781ZM130.331 152.702C130.181 154.591 129.806 156.468 129.205 158.334L131.108 158.948C131.756 156.938 132.162 154.909 132.325 152.86L130.331 152.702ZM129.204 158.335L121.892 181.116L123.796 181.728L131.108 158.946L129.204 158.335ZM122.844 182.422H140.047V180.422H122.844V182.422ZM211.062 223.188L210.375 222.461L210.373 222.463L211.062 223.188ZM173.281 227.781H172.281V228.406L172.843 228.68L173.281 227.781ZM173.281 215.312L173.784 214.448L172.281 213.573V215.312H173.281ZM199.859 215.641L199.169 214.917L199.165 214.921L199.859 215.641ZM203.984 201.109H204.984V200.109H203.984V201.109ZM203.797 201.109V200.109H203.244L202.95 200.578L203.797 201.109ZM203.797 165.578L202.957 166.121L203.252 166.578H203.797V165.578ZM203.984 165.578V166.578H204.984V165.578H203.984ZM203.984 160V159H202.984V160H203.984ZM218.797 160H219.797V159H218.797V160ZM201.453 173.406L200.682 174.043L200.687 174.049L200.692 174.055L201.453 173.406ZM186.594 194.359L185.798 194.964L185.802 194.97L186.594 194.359ZM201.312 194.312L200.533 193.687L200.532 193.688L201.312 194.312ZM217.797 202.516C217.797 211.222 215.284 217.821 210.375 222.461L211.75 223.914C217.154 218.804 219.797 211.622 219.797 202.516H217.797ZM210.373 222.463C205.463 227.135 198.278 229.547 188.656 229.547V231.547C198.597 231.547 206.349 229.052 211.752 223.912L210.373 222.463ZM188.656 229.547C182.265 229.547 177.311 228.633 173.72 226.882L172.843 228.68C176.814 230.617 182.11 231.547 188.656 231.547V229.547ZM174.281 227.781V215.312H172.281V227.781H174.281ZM172.778 216.177C177.847 219.128 183.003 220.625 188.234 220.625V218.625C183.403 218.625 178.59 217.247 173.784 214.448L172.778 216.177ZM188.234 220.625C193.411 220.625 197.566 219.246 200.554 216.36L199.165 214.921C196.653 217.347 193.058 218.625 188.234 218.625V220.625ZM200.55 216.364C203.535 213.514 204.984 209.654 204.984 204.906H202.984C202.984 209.221 201.684 212.517 199.169 214.917L200.55 216.364ZM204.984 204.906V201.109H202.984V204.906H204.984ZM203.984 200.109H203.797V202.109H203.984V200.109ZM202.95 200.578C199.766 205.648 195.11 208.172 188.844 208.172V210.172C195.765 210.172 201.077 207.321 204.644 201.641L202.95 200.578ZM188.844 208.172C182.985 208.172 178.419 206.125 175.034 202.063L173.497 203.343C177.3 207.906 182.453 210.172 188.844 210.172V208.172ZM175.034 202.063C171.629 197.977 169.875 192.445 169.875 185.359H167.875C167.875 192.774 169.715 198.804 173.497 203.343L175.034 202.063ZM169.875 185.359C169.875 177.397 171.833 171.194 175.642 166.642L174.108 165.358C169.917 170.368 167.875 177.072 167.875 185.359H169.875ZM175.642 166.642C179.442 162.1 184.421 159.828 190.672 159.828V157.828C183.861 157.828 178.308 160.338 174.108 165.358L175.642 166.642ZM190.672 159.828C196.213 159.828 200.254 161.935 202.957 166.121L204.637 165.036C201.527 160.221 196.818 157.828 190.672 157.828V159.828ZM203.797 166.578H203.984V164.578H203.797V166.578ZM204.984 165.578V160H202.984V165.578H204.984ZM203.984 161H218.797V159H203.984V161ZM217.797 160V202.516H219.797V160H217.797ZM205.172 184.938V181.141H203.172V184.938H205.172ZM205.172 181.141C205.172 177.893 204.194 175.079 202.214 172.757L200.692 174.055C202.337 175.983 203.172 178.325 203.172 181.141H205.172ZM202.224 172.769C200.247 170.376 197.632 169.172 194.469 169.172V171.172C197.055 171.172 199.097 172.124 200.682 174.043L202.224 172.769ZM194.469 169.172C190.881 169.172 187.998 170.595 185.927 173.425L187.541 174.606C189.221 172.311 191.494 171.172 194.469 171.172V169.172ZM185.927 173.425C183.881 176.222 182.922 180.07 182.922 184.844H184.922C184.922 180.305 185.838 176.934 187.541 174.606L185.927 173.425ZM182.922 184.844C182.922 188.985 183.844 192.394 185.798 194.964L187.39 193.754C185.781 191.638 184.922 188.703 184.922 184.844H182.922ZM185.802 194.97C187.785 197.544 190.524 198.828 193.906 198.828V196.828C191.101 196.828 188.965 195.799 187.386 193.749L185.802 194.97ZM193.906 198.828C197.265 198.828 200.024 197.524 202.093 194.937L200.532 193.688C198.851 195.789 196.672 196.828 193.906 196.828V198.828ZM202.092 194.938C204.176 192.342 205.172 188.977 205.172 184.938H203.172C203.172 188.648 202.261 191.533 200.533 193.687L202.092 194.938ZM274.297 188.219V189.219H275.297V188.219H274.297ZM242.984 188.219V187.219H241.91L241.987 188.29L242.984 188.219ZM270.078 194.922H271.078V193.118L269.548 194.074L270.078 194.922ZM270.078 205.609L270.55 206.491L271.078 206.208V205.609H270.078ZM234.734 202.75L234.025 203.455L234.027 203.457L234.734 202.75ZM268.531 165.062L267.794 165.738L267.797 165.741L268.531 165.062ZM260.562 179.125V180.125H261.562V179.125H260.562ZM246.031 171.766L245.284 171.101L245.278 171.108L246.031 171.766ZM242.891 179.125L241.899 178.998L241.755 180.125H242.891V179.125ZM274.297 187.219H242.984V189.219H274.297V187.219ZM241.987 188.29C242.252 191.98 243.564 194.884 246.031 196.842C248.47 198.778 251.894 199.672 256.156 199.672V197.672C252.138 197.672 249.225 196.824 247.274 195.275C245.35 193.748 244.217 191.426 243.982 188.147L241.987 188.29ZM256.156 199.672C261.602 199.672 266.431 198.381 270.608 195.77L269.548 194.074C265.726 196.463 261.273 197.672 256.156 197.672V199.672ZM269.078 194.922V205.609H271.078V194.922H269.078ZM269.606 204.728C265.361 207 259.774 208.172 252.781 208.172V210.172C259.976 210.172 265.92 208.969 270.55 206.491L269.606 204.728ZM252.781 208.172C245.219 208.172 239.487 206.088 235.441 202.043L234.027 203.457C238.545 207.975 244.844 210.172 252.781 210.172V208.172ZM235.444 202.045C231.395 197.967 229.312 192.247 229.312 184.75H227.312C227.312 192.628 229.511 198.908 234.025 203.455L235.444 202.045ZM229.312 184.75C229.312 176.985 231.559 170.947 235.959 166.517L234.541 165.108C229.691 169.99 227.312 176.577 227.312 184.75H229.312ZM235.959 166.517C240.391 162.056 245.82 159.828 252.312 159.828V157.828C245.305 157.828 239.359 160.257 234.541 165.108L235.959 166.517ZM252.312 159.828C259.105 159.828 264.215 161.837 267.794 165.738L269.268 164.387C265.222 159.976 259.52 157.828 252.312 157.828V159.828ZM267.797 165.741C271.429 169.669 273.297 175.043 273.297 181.984H275.297C275.297 174.675 273.321 168.769 269.265 164.384L267.797 165.741ZM273.297 181.984V188.219H275.297V181.984H273.297ZM261.562 179.125C261.562 175.579 260.849 172.733 259.254 170.762C257.626 168.749 255.217 167.812 252.219 167.812V169.812C254.783 169.812 256.546 170.594 257.699 172.02C258.885 173.485 259.562 175.796 259.562 179.125H261.562ZM252.219 167.812C249.525 167.812 247.2 168.945 245.284 171.101L246.779 172.43C248.362 170.649 250.162 169.812 252.219 169.812V167.812ZM245.278 171.108C243.412 173.245 242.295 175.891 241.899 178.998L243.883 179.252C244.236 176.484 245.213 174.223 246.785 172.423L245.278 171.108ZM242.891 180.125H260.562V178.125H242.891V180.125ZM329.469 208V209H330.469V208H329.469ZM314.703 208H313.703V209H314.703V208ZM297.922 208V209H298.922V208H297.922ZM283.109 208H282.109V209H283.109V208ZM283.109 160V159H282.109V160H283.109ZM297.922 160H298.922V159H297.922V160ZM297.922 167.594H296.922V168.594H297.922V167.594ZM298.109 167.594V168.594H298.673L298.965 168.111L298.109 167.594ZM329.469 207H314.703V209H329.469V207ZM315.703 208V181.328H313.703V208H315.703ZM315.703 181.328C315.703 177.521 315.029 174.485 313.525 172.38C311.976 170.212 309.653 169.172 306.734 169.172V171.172C309.128 171.172 310.789 171.991 311.897 173.542C313.049 175.155 313.703 177.698 313.703 181.328H315.703ZM306.734 169.172C303.875 169.172 301.486 170.288 299.641 172.481L301.171 173.769C302.639 172.025 304.468 171.172 306.734 171.172V169.172ZM299.641 172.481C297.807 174.661 296.922 177.402 296.922 180.625H298.922C298.922 177.785 299.693 175.526 301.171 173.769L299.641 172.481ZM296.922 180.625V208H298.922V180.625H296.922ZM297.922 207H283.109V209H297.922V207ZM284.109 208V160H282.109V208H284.109ZM283.109 161H297.922V159H283.109V161ZM296.922 160V167.594H298.922V160H296.922ZM297.922 168.594H298.109V166.594H297.922V168.594ZM298.965 168.111C302.318 162.563 307.136 159.828 313.531 159.828V157.828C306.426 157.828 300.963 160.937 297.253 167.077L298.965 168.111ZM313.531 159.828C318.625 159.828 322.286 161.398 324.706 164.401C327.158 167.445 328.469 172.124 328.469 178.609H330.469C330.469 171.908 329.123 166.696 326.263 163.146C323.37 159.555 319.062 157.828 313.531 157.828V159.828ZM328.469 178.609V208H330.469V178.609H328.469ZM388.203 208V209H389.203V208H388.203ZM373.391 208H372.391V209H373.391V208ZM373.391 201.391H374.391V200.391H373.391V201.391ZM373.203 201.391V200.391H372.661L372.365 200.845L373.203 201.391ZM343.859 202.844L343.101 203.496L343.104 203.499L343.859 202.844ZM373.203 165.484L372.327 165.966L372.611 166.484H373.203V165.484ZM373.391 165.484V166.484H374.391V165.484H373.391ZM373.391 136.938V135.938H372.391V136.938H373.391ZM388.203 136.938H389.203V135.938H388.203V136.938ZM356.188 174.062L356.999 174.647L357.003 174.642L356.188 174.062ZM370.812 194.219L370.029 193.598L370.024 193.604L370.812 194.219ZM388.203 207H373.391V209H388.203V207ZM374.391 208V201.391H372.391V208H374.391ZM373.391 200.391H373.203V202.391H373.391V200.391ZM372.365 200.845C369.186 205.731 364.559 208.172 358.344 208.172V210.172C365.191 210.172 370.47 207.425 374.041 201.936L372.365 200.845ZM358.344 208.172C352.609 208.172 348.066 206.171 344.615 202.189L343.104 203.499C346.965 207.954 352.078 210.172 358.344 210.172V208.172ZM344.617 202.192C341.165 198.179 339.375 192.518 339.375 185.078H337.375C337.375 192.826 339.241 199.009 343.101 203.496L344.617 202.192ZM339.375 185.078C339.375 177.311 341.344 171.201 345.186 166.645L343.657 165.355C339.437 170.361 337.375 176.97 337.375 185.078H339.375ZM345.186 166.645C349.018 162.1 354.014 159.828 360.266 159.828V157.828C353.455 157.828 347.888 160.338 343.657 165.355L345.186 166.645ZM360.266 159.828C366.184 159.828 370.107 161.924 372.327 165.966L374.08 165.003C371.425 160.169 366.722 157.828 360.266 157.828V159.828ZM373.203 166.484H373.391V164.484H373.203V166.484ZM374.391 165.484V136.938H372.391V165.484H374.391ZM373.391 137.938H388.203V135.938H373.391V137.938ZM387.203 136.938V208H389.203V136.938H387.203ZM374.672 184.656V181.047H372.672V184.656H374.672ZM374.672 181.047C374.672 177.715 373.699 174.876 371.704 172.606L370.202 173.926C371.832 175.781 372.672 178.129 372.672 181.047H374.672ZM371.704 172.606C369.69 170.313 367.05 169.172 363.875 169.172V171.172C366.513 171.172 368.592 172.093 370.202 173.926L371.704 172.606ZM363.875 169.172C360.282 169.172 357.411 170.616 355.372 173.483L357.003 174.642C358.652 172.322 360.906 171.172 363.875 171.172V169.172ZM355.376 173.478C353.367 176.27 352.422 180.033 352.422 184.656H354.422C354.422 180.28 355.32 176.98 356.999 174.647L355.376 173.478ZM352.422 184.656C352.422 188.999 353.337 192.5 355.306 195.022L356.882 193.791C355.288 191.75 354.422 188.751 354.422 184.656H352.422ZM355.306 195.022C357.295 197.57 360.068 198.828 363.5 198.828V196.828C360.62 196.828 358.455 195.805 356.882 193.791L355.306 195.022ZM363.5 198.828C366.814 198.828 369.541 197.478 371.601 194.833L370.024 193.604C368.334 195.772 366.186 196.828 363.5 196.828V198.828ZM371.596 194.84C373.679 192.211 374.672 188.784 374.672 184.656H372.672C372.672 188.466 371.758 191.414 370.029 193.598L371.596 194.84ZM440.609 208V209H441.609V208H440.609ZM426.594 208H425.594V209H426.594V208ZM426.594 201.109H427.594V200.109H426.594V201.109ZM426.406 201.109V200.109H425.84L425.548 200.596L426.406 201.109ZM401.094 205.234L400.387 205.942L400.395 205.95L401.094 205.234ZM413.656 178.516L413.785 179.507L413.788 179.507L413.656 178.516ZM426.688 176.781L426.819 177.773L427.688 177.657V176.781H426.688ZM401.844 174.016H400.844V175.875L402.395 174.85L401.844 174.016ZM401.844 162.859L401.386 161.97L400.844 162.25V162.859H401.844ZM410.281 160.047L410.061 159.071L410.059 159.072L410.281 160.047ZM426.688 185.266H427.688V184.128L426.56 184.274L426.688 185.266ZM417.969 186.391L417.841 185.399L417.84 185.399L417.969 186.391ZM412.484 197.078L411.797 197.805L411.807 197.814L411.818 197.823L412.484 197.078ZM424.062 195.812L424.799 196.489L424.805 196.483L424.062 195.812ZM440.609 207H426.594V209H440.609V207ZM427.594 208V201.109H425.594V208H427.594ZM426.594 200.109H426.406V202.109H426.594V200.109ZM425.548 200.596C422.512 205.666 418.074 208.172 412.109 208.172V210.172C418.77 210.172 423.863 207.303 427.264 201.623L425.548 200.596ZM412.109 208.172C407.648 208.172 404.251 206.92 401.792 204.519L400.395 205.95C403.312 208.799 407.258 210.172 412.109 210.172V208.172ZM401.801 204.527C399.364 202.091 398.109 198.831 398.109 194.641H396.109C396.109 199.263 397.511 203.065 400.387 205.941L401.801 204.527ZM398.109 194.641C398.109 190.194 399.419 186.802 401.944 184.341C404.492 181.858 408.392 180.21 413.785 179.507L413.527 177.524C407.889 178.259 403.516 180.017 400.548 182.909C397.558 185.823 396.109 189.775 396.109 194.641H398.109ZM413.788 179.507L426.819 177.773L426.556 175.79L413.524 177.524L413.788 179.507ZM427.688 176.781C427.688 173.981 426.925 171.702 425.233 170.14C423.556 168.592 421.135 167.906 418.156 167.906V169.906C420.865 169.906 422.71 170.533 423.876 171.61C425.028 172.673 425.688 174.332 425.688 176.781H427.688ZM418.156 167.906C412.226 167.906 406.599 169.676 401.293 173.181L402.395 174.85C407.401 171.543 412.649 169.906 418.156 169.906V167.906ZM402.844 174.016V162.859H400.844V174.016H402.844ZM402.302 163.748C404.26 162.74 406.982 161.825 410.504 161.022L410.059 159.072C406.456 159.894 403.553 160.854 401.386 161.97L402.302 163.748ZM410.502 161.022C414.041 160.222 417.231 159.828 420.078 159.828V157.828C417.051 157.828 413.709 158.247 410.061 159.071L410.502 161.022ZM420.078 159.828C426.768 159.828 431.602 161.496 434.77 164.657C437.938 167.818 439.609 172.639 439.609 179.312H441.609C441.609 172.33 439.859 166.909 436.183 163.241C432.507 159.574 427.075 157.828 420.078 157.828V159.828ZM439.609 179.312V208H441.609V179.312H439.609ZM427.688 188.5V185.266H425.688V188.5H427.688ZM426.56 184.274L417.841 185.399L418.097 187.382L426.815 186.257L426.56 184.274ZM417.84 185.399C415.327 185.725 413.297 186.472 411.885 187.746C410.44 189.05 409.75 190.81 409.75 192.906H411.75C411.75 191.284 412.264 190.098 413.225 189.231C414.219 188.333 415.798 187.681 418.098 187.382L417.84 185.399ZM409.75 192.906C409.75 194.85 410.428 196.51 411.797 197.805L413.172 196.352C412.228 195.459 411.75 194.337 411.75 192.906H409.75ZM411.818 197.823C413.232 199.089 415.085 199.672 417.266 199.672V197.672C415.447 197.672 414.112 197.193 413.151 196.333L411.818 197.823ZM417.266 199.672C420.303 199.672 422.844 198.618 424.799 196.489L423.326 195.136C421.781 196.819 419.79 197.672 417.266 197.672V199.672ZM424.805 196.483C426.742 194.338 427.688 191.652 427.688 188.5H425.688C425.688 191.223 424.883 193.412 423.32 195.142L424.805 196.483Z" fill="#383838"/>
<path d="M259.797 318V319H261.214L260.739 317.665L259.797 318ZM243.297 318L242.344 318.305L242.567 319H243.297V318ZM238.516 303.047L239.468 302.742L239.246 302.047H238.516V303.047ZM214.609 303.047V302.047H213.877L213.656 302.745L214.609 303.047ZM209.875 318V319H210.607L210.828 318.302L209.875 318ZM193.469 318L192.529 317.658L192.041 319H193.469V318ZM217.938 250.781V249.781H217.237L216.998 250.439L217.938 250.781ZM235.891 250.781L236.833 250.446L236.596 249.781H235.891V250.781ZM235.047 291.422V292.422H236.416L235.999 291.118L235.047 291.422ZM227.828 268.828L226.874 269.128L226.876 269.132L227.828 268.828ZM226.703 262.781L227.699 262.688L227.614 261.781H226.703V262.781ZM226.328 262.781V261.781H225.404L225.331 262.702L226.328 262.781ZM225.156 268.641L224.205 268.334L224.204 268.335L225.156 268.641ZM217.844 291.422L216.892 291.116L216.473 292.422H217.844V291.422ZM259.797 317H243.297V319H259.797V317ZM244.249 317.695L239.468 302.742L237.563 303.351L242.344 318.305L244.249 317.695ZM238.516 302.047H214.609V304.047H238.516V302.047ZM213.656 302.745L208.922 317.698L210.828 318.302L215.563 303.349L213.656 302.745ZM209.875 317H193.469V319H209.875V317ZM194.408 318.342L218.877 251.123L216.998 250.439L192.529 317.658L194.408 318.342ZM217.938 251.781H235.891V249.781H217.938V251.781ZM234.948 251.116L258.855 318.335L260.739 317.665L236.833 250.446L234.948 251.116ZM235.999 291.118L228.781 268.524L226.876 269.132L234.094 291.726L235.999 291.118ZM228.782 268.528C228.278 266.926 227.913 264.983 227.699 262.688L225.707 262.874C225.931 265.267 226.316 267.356 226.874 269.128L228.782 268.528ZM226.703 261.781H226.328V263.781H226.703V261.781ZM225.331 262.702C225.181 264.591 224.806 266.468 224.205 268.334L226.108 268.948C226.756 266.938 227.162 264.909 227.325 262.86L225.331 262.702ZM224.204 268.335L216.892 291.116L218.796 291.728L226.108 268.946L224.204 268.335ZM217.844 292.422H235.047V290.422H217.844V292.422ZM306.062 333.188L305.375 332.461L305.373 332.463L306.062 333.188ZM268.281 337.781H267.281V338.406L267.843 338.68L268.281 337.781ZM268.281 325.312L268.784 324.448L267.281 323.573V325.312H268.281ZM294.859 325.641L294.169 324.917L294.165 324.921L294.859 325.641ZM298.984 311.109H299.984V310.109H298.984V311.109ZM298.797 311.109V310.109H298.244L297.95 310.578L298.797 311.109ZM298.797 275.578L297.957 276.121L298.252 276.578H298.797V275.578ZM298.984 275.578V276.578H299.984V275.578H298.984ZM298.984 270V269H297.984V270H298.984ZM313.797 270H314.797V269H313.797V270ZM296.453 283.406L295.682 284.043L295.687 284.049L295.692 284.055L296.453 283.406ZM281.594 304.359L280.798 304.964L280.802 304.97L281.594 304.359ZM296.312 304.312L295.533 303.687L295.532 303.688L296.312 304.312ZM312.797 312.516C312.797 321.222 310.284 327.821 305.375 332.461L306.75 333.914C312.154 328.804 314.797 321.622 314.797 312.516H312.797ZM305.373 332.463C300.463 337.135 293.278 339.547 283.656 339.547V341.547C293.597 341.547 301.349 339.052 306.752 333.912L305.373 332.463ZM283.656 339.547C277.265 339.547 272.311 338.633 268.72 336.882L267.843 338.68C271.814 340.617 277.11 341.547 283.656 341.547V339.547ZM269.281 337.781V325.312H267.281V337.781H269.281ZM267.778 326.177C272.847 329.128 278.003 330.625 283.234 330.625V328.625C278.403 328.625 273.59 327.247 268.784 324.448L267.778 326.177ZM283.234 330.625C288.411 330.625 292.566 329.246 295.554 326.36L294.165 324.921C291.653 327.347 288.058 328.625 283.234 328.625V330.625ZM295.55 326.364C298.535 323.514 299.984 319.654 299.984 314.906H297.984C297.984 319.221 296.684 322.517 294.169 324.917L295.55 326.364ZM299.984 314.906V311.109H297.984V314.906H299.984ZM298.984 310.109H298.797V312.109H298.984V310.109ZM297.95 310.578C294.766 315.648 290.11 318.172 283.844 318.172V320.172C290.765 320.172 296.077 317.321 299.644 311.641L297.95 310.578ZM283.844 318.172C277.985 318.172 273.419 316.125 270.034 312.063L268.497 313.343C272.3 317.906 277.453 320.172 283.844 320.172V318.172ZM270.034 312.063C266.629 307.977 264.875 302.445 264.875 295.359H262.875C262.875 302.774 264.715 308.804 268.497 313.343L270.034 312.063ZM264.875 295.359C264.875 287.397 266.833 281.194 270.642 276.642L269.108 275.358C264.917 280.368 262.875 287.072 262.875 295.359H264.875ZM270.642 276.642C274.442 272.1 279.421 269.828 285.672 269.828V267.828C278.861 267.828 273.308 270.338 269.108 275.358L270.642 276.642ZM285.672 269.828C291.213 269.828 295.254 271.935 297.957 276.121L299.637 275.036C296.527 270.221 291.818 267.828 285.672 267.828V269.828ZM298.797 276.578H298.984V274.578H298.797V276.578ZM299.984 275.578V270H297.984V275.578H299.984ZM298.984 271H313.797V269H298.984V271ZM312.797 270V312.516H314.797V270H312.797ZM300.172 294.938V291.141H298.172V294.938H300.172ZM300.172 291.141C300.172 287.893 299.194 285.079 297.214 282.757L295.692 284.055C297.337 285.983 298.172 288.325 298.172 291.141H300.172ZM297.224 282.769C295.247 280.376 292.632 279.172 289.469 279.172V281.172C292.055 281.172 294.097 282.124 295.682 284.043L297.224 282.769ZM289.469 279.172C285.881 279.172 282.998 280.595 280.927 283.425L282.541 284.606C284.221 282.311 286.494 281.172 289.469 281.172V279.172ZM280.927 283.425C278.881 286.222 277.922 290.07 277.922 294.844H279.922C279.922 290.305 280.838 286.934 282.541 284.606L280.927 283.425ZM277.922 294.844C277.922 298.985 278.844 302.394 280.798 304.964L282.39 303.754C280.781 301.638 279.922 298.703 279.922 294.844H277.922ZM280.802 304.97C282.785 307.544 285.524 308.828 288.906 308.828V306.828C286.101 306.828 283.965 305.799 282.386 303.749L280.802 304.97ZM288.906 308.828C292.265 308.828 295.024 307.524 297.093 304.937L295.532 303.688C293.851 305.789 291.672 306.828 288.906 306.828V308.828ZM297.092 304.938C299.176 302.342 300.172 298.977 300.172 294.938H298.172C298.172 298.648 297.261 301.533 295.533 303.687L297.092 304.938ZM369.297 298.219V299.219H370.297V298.219H369.297ZM337.984 298.219V297.219H336.91L336.987 298.29L337.984 298.219ZM365.078 304.922H366.078V303.118L364.548 304.074L365.078 304.922ZM365.078 315.609L365.55 316.491L366.078 316.208V315.609H365.078ZM329.734 312.75L329.025 313.455L329.027 313.457L329.734 312.75ZM363.531 275.062L362.794 275.738L362.797 275.741L363.531 275.062ZM355.562 289.125V290.125H356.562V289.125H355.562ZM341.031 281.766L340.284 281.101L340.278 281.108L341.031 281.766ZM337.891 289.125L336.899 288.998L336.755 290.125H337.891V289.125ZM369.297 297.219H337.984V299.219H369.297V297.219ZM336.987 298.29C337.252 301.98 338.564 304.884 341.031 306.842C343.47 308.778 346.894 309.672 351.156 309.672V307.672C347.138 307.672 344.225 306.824 342.274 305.275C340.35 303.748 339.217 301.426 338.982 298.147L336.987 298.29ZM351.156 309.672C356.602 309.672 361.431 308.381 365.608 305.77L364.548 304.074C360.726 306.463 356.273 307.672 351.156 307.672V309.672ZM364.078 304.922V315.609H366.078V304.922H364.078ZM364.606 314.728C360.361 317 354.774 318.172 347.781 318.172V320.172C354.976 320.172 360.92 318.969 365.55 316.491L364.606 314.728ZM347.781 318.172C340.219 318.172 334.487 316.088 330.441 312.043L329.027 313.457C333.545 317.975 339.844 320.172 347.781 320.172V318.172ZM330.444 312.045C326.395 307.967 324.312 302.247 324.312 294.75H322.312C322.312 302.628 324.511 308.908 329.025 313.455L330.444 312.045ZM324.312 294.75C324.312 286.985 326.559 280.947 330.959 276.517L329.541 275.108C324.691 279.99 322.312 286.577 322.312 294.75H324.312ZM330.959 276.517C335.391 272.056 340.82 269.828 347.312 269.828V267.828C340.305 267.828 334.359 270.257 329.541 275.108L330.959 276.517ZM347.312 269.828C354.105 269.828 359.215 271.837 362.794 275.738L364.268 274.387C360.222 269.976 354.52 267.828 347.312 267.828V269.828ZM362.797 275.741C366.429 279.669 368.297 285.043 368.297 291.984H370.297C370.297 284.675 368.321 278.769 364.265 274.384L362.797 275.741ZM368.297 291.984V298.219H370.297V291.984H368.297ZM356.562 289.125C356.562 285.579 355.849 282.733 354.254 280.762C352.626 278.749 350.217 277.812 347.219 277.812V279.812C349.783 279.812 351.546 280.594 352.699 282.02C353.885 283.485 354.562 285.796 354.562 289.125H356.562ZM347.219 277.812C344.525 277.812 342.2 278.945 340.284 281.101L341.779 282.43C343.362 280.649 345.162 279.812 347.219 279.812V277.812ZM340.278 281.108C338.412 283.245 337.295 285.891 336.899 288.998L338.883 289.252C339.236 286.484 340.213 284.223 341.785 282.423L340.278 281.108ZM337.891 290.125H355.562V288.125H337.891V290.125ZM424.469 318V319H425.469V318H424.469ZM409.703 318H408.703V319H409.703V318ZM392.922 318V319H393.922V318H392.922ZM378.109 318H377.109V319H378.109V318ZM378.109 270V269H377.109V270H378.109ZM392.922 270H393.922V269H392.922V270ZM392.922 277.594H391.922V278.594H392.922V277.594ZM393.109 277.594V278.594H393.673L393.965 278.111L393.109 277.594ZM424.469 317H409.703V319H424.469V317ZM410.703 318V291.328H408.703V318H410.703ZM410.703 291.328C410.703 287.521 410.029 284.485 408.525 282.38C406.976 280.212 404.653 279.172 401.734 279.172V281.172C404.128 281.172 405.789 281.991 406.897 283.542C408.049 285.155 408.703 287.698 408.703 291.328H410.703ZM401.734 279.172C398.875 279.172 396.486 280.288 394.641 282.481L396.171 283.769C397.639 282.025 399.468 281.172 401.734 281.172V279.172ZM394.641 282.481C392.807 284.661 391.922 287.402 391.922 290.625H393.922C393.922 287.785 394.693 285.526 396.171 283.769L394.641 282.481ZM391.922 290.625V318H393.922V290.625H391.922ZM392.922 317H378.109V319H392.922V317ZM379.109 318V270H377.109V318H379.109ZM378.109 271H392.922V269H378.109V271ZM391.922 270V277.594H393.922V270H391.922ZM392.922 278.594H393.109V276.594H392.922V278.594ZM393.965 278.111C397.318 272.563 402.136 269.828 408.531 269.828V267.828C401.426 267.828 395.963 270.937 392.253 277.077L393.965 278.111ZM408.531 269.828C413.625 269.828 417.286 271.398 419.706 274.401C422.158 277.445 423.469 282.124 423.469 288.609H425.469C425.469 281.908 424.123 276.696 421.263 273.146C418.37 269.555 414.062 267.828 408.531 267.828V269.828ZM423.469 288.609V318H425.469V288.609H423.469ZM483.203 318V319H484.203V318H483.203ZM468.391 318H467.391V319H468.391V318ZM468.391 311.391H469.391V310.391H468.391V311.391ZM468.203 311.391V310.391H467.661L467.365 310.845L468.203 311.391ZM438.859 312.844L438.101 313.496L438.104 313.499L438.859 312.844ZM468.203 275.484L467.327 275.966L467.611 276.484H468.203V275.484ZM468.391 275.484V276.484H469.391V275.484H468.391ZM468.391 246.938V245.938H467.391V246.938H468.391ZM483.203 246.938H484.203V245.938H483.203V246.938ZM451.188 284.062L451.999 284.647L452.003 284.642L451.188 284.062ZM465.812 304.219L465.029 303.598L465.024 303.604L465.812 304.219ZM483.203 317H468.391V319H483.203V317ZM469.391 318V311.391H467.391V318H469.391ZM468.391 310.391H468.203V312.391H468.391V310.391ZM467.365 310.845C464.186 315.731 459.559 318.172 453.344 318.172V320.172C460.191 320.172 465.47 317.425 469.041 311.936L467.365 310.845ZM453.344 318.172C447.609 318.172 443.066 316.171 439.615 312.189L438.104 313.499C441.965 317.954 447.078 320.172 453.344 320.172V318.172ZM439.617 312.192C436.165 308.179 434.375 302.518 434.375 295.078H432.375C432.375 302.826 434.241 309.009 438.101 313.496L439.617 312.192ZM434.375 295.078C434.375 287.311 436.344 281.201 440.186 276.645L438.657 275.355C434.437 280.361 432.375 286.97 432.375 295.078H434.375ZM440.186 276.645C444.018 272.1 449.014 269.828 455.266 269.828V267.828C448.455 267.828 442.888 270.338 438.657 275.355L440.186 276.645ZM455.266 269.828C461.184 269.828 465.107 271.924 467.327 275.966L469.08 275.003C466.425 270.169 461.722 267.828 455.266 267.828V269.828ZM468.203 276.484H468.391V274.484H468.203V276.484ZM469.391 275.484V246.938H467.391V275.484H469.391ZM468.391 247.938H483.203V245.938H468.391V247.938ZM482.203 246.938V318H484.203V246.938H482.203ZM469.672 294.656V291.047H467.672V294.656H469.672ZM469.672 291.047C469.672 287.715 468.699 284.876 466.704 282.606L465.202 283.926C466.832 285.781 467.672 288.129 467.672 291.047H469.672ZM466.704 282.606C464.69 280.313 462.05 279.172 458.875 279.172V281.172C461.513 281.172 463.592 282.093 465.202 283.926L466.704 282.606ZM458.875 279.172C455.282 279.172 452.411 280.616 450.372 283.483L452.003 284.642C453.652 282.322 455.906 281.172 458.875 281.172V279.172ZM450.376 283.478C448.367 286.27 447.422 290.033 447.422 294.656H449.422C449.422 290.28 450.32 286.98 451.999 284.647L450.376 283.478ZM447.422 294.656C447.422 298.999 448.337 302.5 450.306 305.022L451.882 303.791C450.288 301.75 449.422 298.751 449.422 294.656H447.422ZM450.306 305.022C452.295 307.57 455.068 308.828 458.5 308.828V306.828C455.62 306.828 453.455 305.805 451.882 303.791L450.306 305.022ZM458.5 308.828C461.814 308.828 464.541 307.478 466.601 304.833L465.024 303.604C463.334 305.772 461.186 306.828 458.5 306.828V308.828ZM466.596 304.84C468.679 302.211 469.672 298.784 469.672 294.656H467.672C467.672 298.466 466.758 301.414 465.029 303.598L466.596 304.84ZM535.609 318V319H536.609V318H535.609ZM521.594 318H520.594V319H521.594V318ZM521.594 311.109H522.594V310.109H521.594V311.109ZM521.406 311.109V310.109H520.84L520.548 310.596L521.406 311.109ZM496.094 315.234L495.387 315.942L495.395 315.95L496.094 315.234ZM508.656 288.516L508.785 289.507L508.788 289.507L508.656 288.516ZM521.688 286.781L521.819 287.773L522.688 287.657V286.781H521.688ZM496.844 284.016H495.844V285.875L497.395 284.85L496.844 284.016ZM496.844 272.859L496.386 271.97L495.844 272.25V272.859H496.844ZM505.281 270.047L505.061 269.071L505.059 269.072L505.281 270.047ZM521.688 295.266H522.688V294.128L521.56 294.274L521.688 295.266ZM512.969 296.391L512.841 295.399L512.84 295.399L512.969 296.391ZM507.484 307.078L506.797 307.805L506.807 307.814L506.818 307.823L507.484 307.078ZM519.062 305.812L519.799 306.489L519.805 306.483L519.062 305.812ZM535.609 317H521.594V319H535.609V317ZM522.594 318V311.109H520.594V318H522.594ZM521.594 310.109H521.406V312.109H521.594V310.109ZM520.548 310.596C517.512 315.666 513.074 318.172 507.109 318.172V320.172C513.77 320.172 518.863 317.303 522.264 311.623L520.548 310.596ZM507.109 318.172C502.648 318.172 499.251 316.92 496.792 314.519L495.395 315.95C498.312 318.799 502.258 320.172 507.109 320.172V318.172ZM496.801 314.527C494.364 312.091 493.109 308.831 493.109 304.641H491.109C491.109 309.263 492.511 313.065 495.387 315.941L496.801 314.527ZM493.109 304.641C493.109 300.194 494.419 296.802 496.944 294.341C499.492 291.858 503.392 290.21 508.785 289.507L508.527 287.524C502.889 288.259 498.516 290.017 495.548 292.909C492.558 295.823 491.109 299.775 491.109 304.641H493.109ZM508.788 289.507L521.819 287.773L521.556 285.79L508.524 287.524L508.788 289.507ZM522.688 286.781C522.688 283.981 521.925 281.702 520.233 280.14C518.556 278.592 516.135 277.906 513.156 277.906V279.906C515.865 279.906 517.71 280.533 518.876 281.61C520.028 282.673 520.688 284.332 520.688 286.781H522.688ZM513.156 277.906C507.226 277.906 501.599 279.676 496.293 283.181L497.395 284.85C502.401 281.543 507.649 279.906 513.156 279.906V277.906ZM497.844 284.016V272.859H495.844V284.016H497.844ZM497.302 273.748C499.26 272.74 501.982 271.825 505.504 271.022L505.059 269.072C501.456 269.894 498.553 270.854 496.386 271.97L497.302 273.748ZM505.502 271.022C509.041 270.222 512.231 269.828 515.078 269.828V267.828C512.051 267.828 508.709 268.247 505.061 269.071L505.502 271.022ZM515.078 269.828C521.768 269.828 526.602 271.496 529.77 274.657C532.938 277.818 534.609 282.639 534.609 289.312H536.609C536.609 282.33 534.859 276.909 531.183 273.241C527.507 269.574 522.075 267.828 515.078 267.828V269.828ZM534.609 289.312V318H536.609V289.312H534.609ZM522.688 298.5V295.266H520.688V298.5H522.688ZM521.56 294.274L512.841 295.399L513.097 297.382L521.815 296.257L521.56 294.274ZM512.84 295.399C510.327 295.725 508.297 296.472 506.885 297.746C505.44 299.05 504.75 300.81 504.75 302.906H506.75C506.75 301.284 507.264 300.098 508.225 299.231C509.219 298.333 510.798 297.681 513.098 297.382L512.84 295.399ZM504.75 302.906C504.75 304.85 505.428 306.51 506.797 307.805L508.172 306.352C507.228 305.459 506.75 304.337 506.75 302.906H504.75ZM506.818 307.823C508.232 309.089 510.085 309.672 512.266 309.672V307.672C510.447 307.672 509.112 307.193 508.151 306.333L506.818 307.823ZM512.266 309.672C515.303 309.672 517.844 308.618 519.799 306.489L518.326 305.136C516.781 306.819 514.79 307.672 512.266 307.672V309.672ZM519.805 306.483C521.742 304.338 522.688 301.652 522.688 298.5H520.688C520.688 301.223 519.883 303.412 518.32 305.142L519.805 306.483Z" fill="#999999"/>
<path d="M66.7969 104V105H68.2139L67.7391 103.665L66.7969 104ZM50.2969 104L49.3444 104.305L49.5667 105H50.2969V104ZM45.5156 89.0469L46.4681 88.7423L46.2458 88.0469H45.5156V89.0469ZM21.6094 89.0469V88.0469H20.8771L20.656 88.745L21.6094 89.0469ZM16.875 104V105H17.6073L17.8284 104.302L16.875 104ZM0.46875 104L-0.470929 103.658L-0.95946 105H0.46875V104ZM24.9375 36.7812V35.7812H24.2373L23.9978 36.4392L24.9375 36.7812ZM42.8906 36.7812L43.8328 36.4462L43.5963 35.7812H42.8906V36.7812ZM42.0469 77.4219V78.4219H43.4162L42.9994 77.1175L42.0469 77.4219ZM34.8281 54.8281L33.8743 55.1284L33.8756 55.1325L34.8281 54.8281ZM33.7031 48.7812L34.6988 48.6883L34.6141 47.7812H33.7031V48.7812ZM33.3281 48.7812V47.7812H32.4043L32.3313 48.7021L33.3281 48.7812ZM32.1562 54.6406L31.2045 54.3336L31.2041 54.335L32.1562 54.6406ZM24.8438 77.4219L23.8916 77.1162L23.4725 78.4219H24.8438V77.4219ZM66.7969 103H50.2969V105H66.7969V103ZM51.2494 103.695L46.4681 88.7423L44.5631 89.3514L49.3444 104.305L51.2494 103.695ZM45.5156 88.0469H21.6094V90.0469H45.5156V88.0469ZM20.656 88.745L15.9216 103.698L17.8284 104.302L22.5627 89.3487L20.656 88.745ZM16.875 103H0.46875V105H16.875V103ZM1.40843 104.342L25.8772 37.1233L23.9978 36.4392L-0.470929 103.658L1.40843 104.342ZM24.9375 37.7812H42.8906V35.7812H24.9375V37.7812ZM41.9484 37.1163L65.8547 104.335L67.7391 103.665L43.8328 36.4462L41.9484 37.1163ZM42.9994 77.1175L35.7807 54.5238L33.8756 55.1325L41.0943 77.7262L42.9994 77.1175ZM35.782 54.5278C35.2776 52.9257 34.913 50.9832 34.6988 48.6883L32.7075 48.8742C32.9308 51.2668 33.3162 53.3555 33.8743 55.1284L35.782 54.5278ZM33.7031 47.7812H33.3281V49.7812H33.7031V47.7812ZM32.3313 48.7021C32.1813 50.5911 31.8064 52.4678 31.2045 54.3336L33.108 54.9476C33.7561 52.9385 34.1624 50.9089 34.325 48.8604L32.3313 48.7021ZM31.2041 54.335L23.8916 77.1162L25.7959 77.7275L33.1084 54.9463L31.2041 54.335ZM24.8438 78.4219H42.0469V76.4219H24.8438V78.4219ZM113.062 119.188L112.375 118.461L112.373 118.463L113.062 119.188ZM75.2812 123.781H74.2812V124.406L74.843 124.68L75.2812 123.781ZM75.2812 111.312L75.7844 110.448L74.2812 109.573V111.312H75.2812ZM101.859 111.641L101.169 110.917L101.165 110.921L101.859 111.641ZM105.984 97.1094H106.984V96.1094H105.984V97.1094ZM105.797 97.1094V96.1094H105.244L104.95 96.5776L105.797 97.1094ZM105.797 61.5781L104.957 62.1207L105.252 62.5781H105.797V61.5781ZM105.984 61.5781V62.5781H106.984V61.5781H105.984ZM105.984 56V55H104.984V56H105.984ZM120.797 56H121.797V55H120.797V56ZM103.453 69.4062L102.682 70.0431L102.687 70.0492L102.692 70.0552L103.453 69.4062ZM88.5938 90.3594L87.7976 90.9645L87.8015 90.9696L88.5938 90.3594ZM103.312 90.3125L102.533 89.6866L102.532 89.6878L103.312 90.3125ZM119.797 98.5156C119.797 107.222 117.284 113.821 112.375 118.461L113.75 119.914C119.154 114.804 121.797 107.622 121.797 98.5156H119.797ZM112.373 118.463C107.463 123.135 100.278 125.547 90.6562 125.547V127.547C100.597 127.547 108.349 125.052 113.752 119.912L112.373 118.463ZM90.6562 125.547C84.2655 125.547 79.3105 124.633 75.7195 122.882L74.843 124.68C78.8145 126.617 84.1095 127.547 90.6562 127.547V125.547ZM76.2812 123.781V111.312H74.2812V123.781H76.2812ZM74.7781 112.177C79.8472 115.128 85.0034 116.625 90.2344 116.625V114.625C85.4028 114.625 80.5903 113.247 75.7844 110.448L74.7781 112.177ZM90.2344 116.625C95.411 116.625 99.5657 115.246 102.554 112.36L101.165 110.921C98.653 113.347 95.0577 114.625 90.2344 114.625V116.625ZM102.55 112.364C105.535 109.514 106.984 105.654 106.984 100.906H104.984C104.984 105.221 103.684 108.517 101.169 110.917L102.55 112.364ZM106.984 100.906V97.1094H104.984V100.906H106.984ZM105.984 96.1094H105.797V98.1094H105.984V96.1094ZM104.95 96.5776C101.766 101.648 97.1097 104.172 90.8438 104.172V106.172C97.7653 106.172 103.077 103.321 106.644 97.6411L104.95 96.5776ZM90.8438 104.172C84.9848 104.172 80.4188 102.125 77.0338 98.0629L75.4974 99.3433C79.3 103.906 84.4527 106.172 90.8438 106.172V104.172ZM77.0338 98.0629C73.629 93.9771 71.875 88.4448 71.875 81.3594H69.875C69.875 88.7739 71.7148 94.8042 75.4974 99.3433L77.0338 98.0629ZM71.875 81.3594C71.875 73.3967 73.8331 67.1944 77.642 62.6417L76.108 61.3583C71.9169 66.3681 69.875 73.072 69.875 81.3594H71.875ZM77.642 62.6417C81.4418 58.0997 86.4205 55.8281 92.6719 55.8281V53.8281C85.8607 53.8281 80.3082 56.3378 76.108 61.3583L77.642 62.6417ZM92.6719 55.8281C98.2128 55.8281 102.254 57.9354 104.957 62.1207L106.637 61.0356C103.527 56.2209 98.8184 53.8281 92.6719 53.8281V55.8281ZM105.797 62.5781H105.984V60.5781H105.797V62.5781ZM106.984 61.5781V56H104.984V61.5781H106.984ZM105.984 57H120.797V55H105.984V57ZM119.797 56V98.5156H121.797V56H119.797ZM107.172 80.9375V77.1406H105.172V80.9375H107.172ZM107.172 77.1406C107.172 73.8934 106.194 71.0793 104.214 68.7573L102.692 70.0552C104.337 71.9832 105.172 74.3254 105.172 77.1406H107.172ZM104.224 68.7694C102.247 66.3758 99.6324 65.1719 96.4688 65.1719V67.1719C99.0551 67.1719 101.097 68.1242 102.682 70.0431L104.224 68.7694ZM96.4688 65.1719C92.8811 65.1719 89.998 66.5953 87.9273 69.4251L89.5414 70.6061C91.2208 68.311 93.4939 67.1719 96.4688 67.1719V65.1719ZM87.9273 69.4251C85.8807 72.2222 84.9219 76.0699 84.9219 80.8438H86.9219C86.9219 76.3051 87.8381 72.934 89.5414 70.6061L87.9273 69.4251ZM84.9219 80.8438C84.9219 84.9848 85.8438 88.3937 87.7976 90.9645L89.3899 89.7543C87.7812 87.6375 86.9219 84.7027 86.9219 80.8438H84.9219ZM87.8015 90.9696C89.7849 93.5445 92.5238 94.8281 95.9062 94.8281V92.8281C93.1012 92.8281 90.9651 91.7993 89.386 89.7491L87.8015 90.9696ZM95.9062 94.8281C99.2653 94.8281 102.024 93.5237 104.093 90.9372L102.532 89.6878C100.851 91.7888 98.6722 92.8281 95.9062 92.8281V94.8281ZM104.092 90.9384C106.176 88.3423 107.172 84.977 107.172 80.9375H105.172C105.172 84.648 104.261 87.5327 102.533 89.6866L104.092 90.9384ZM176.297 84.2188V85.2188H177.297V84.2188H176.297ZM144.984 84.2188V83.2188H143.91L143.987 84.2903L144.984 84.2188ZM172.078 90.9219H173.078V89.1176L171.548 90.0739L172.078 90.9219ZM172.078 101.609L172.55 102.491L173.078 102.208V101.609H172.078ZM136.734 98.75L136.025 99.4545L136.027 99.4571L136.734 98.75ZM170.531 61.0625L169.794 61.7385L169.797 61.7415L170.531 61.0625ZM162.562 75.125V76.125H163.562V75.125H162.562ZM148.031 67.7656L147.284 67.1012L147.278 67.108L148.031 67.7656ZM144.891 75.125L143.899 74.9984L143.755 76.125H144.891V75.125ZM176.297 83.2188H144.984V85.2188H176.297V83.2188ZM143.987 84.2903C144.252 87.9803 145.564 90.8844 148.031 92.8419C150.47 94.7776 153.894 95.6719 158.156 95.6719V93.6719C154.138 93.6719 151.225 92.824 149.274 91.2753C147.35 89.7485 146.217 87.426 145.982 84.1472L143.987 84.2903ZM158.156 95.6719C163.602 95.6719 168.431 94.3808 172.608 91.7699L171.548 90.0739C167.726 92.463 163.273 93.6719 158.156 93.6719V95.6719ZM171.078 90.9219V101.609H173.078V90.9219H171.078ZM171.606 100.728C167.361 103 161.774 104.172 154.781 104.172V106.172C161.976 106.172 167.92 104.969 172.55 102.491L171.606 100.728ZM154.781 104.172C147.219 104.172 141.487 102.088 137.441 98.0429L136.027 99.4571C140.545 103.975 146.844 106.172 154.781 106.172V104.172ZM137.444 98.0455C133.395 93.9667 131.312 88.2471 131.312 80.75H129.312C129.312 88.6279 131.511 94.9083 136.025 99.4545L137.444 98.0455ZM131.312 80.75C131.312 72.985 133.559 66.9473 137.959 62.5172L136.541 61.1078C131.691 65.9902 129.312 72.5775 129.312 80.75H131.312ZM137.959 62.5172C142.391 58.0559 147.82 55.8281 154.312 55.8281V53.8281C147.305 53.8281 141.359 56.2566 136.541 61.1078L137.959 62.5172ZM154.312 55.8281C161.105 55.8281 166.215 57.8367 169.794 61.7385L171.268 60.3865C167.222 55.9758 161.52 53.8281 154.312 53.8281V55.8281ZM169.797 61.7415C173.429 65.6685 175.297 71.0433 175.297 77.9844H177.297C177.297 70.6754 175.321 64.769 171.265 60.3835L169.797 61.7415ZM175.297 77.9844V84.2188H177.297V77.9844H175.297ZM163.562 75.125C163.562 71.5787 162.849 68.7335 161.254 66.7616C159.626 64.7493 157.217 63.8125 154.219 63.8125V65.8125C156.783 65.8125 158.546 66.5945 159.699 68.0196C160.885 69.4853 161.562 71.7963 161.562 75.125H163.562ZM154.219 63.8125C151.525 63.8125 149.2 64.945 147.284 67.1013L148.779 68.43C150.362 66.6487 152.162 65.8125 154.219 65.8125V63.8125ZM147.278 67.108C145.412 69.2455 144.295 71.8912 143.899 74.9984L145.883 75.2516C146.236 72.4838 147.213 70.2233 148.785 68.4233L147.278 67.108ZM144.891 76.125H162.562V74.125H144.891V76.125ZM231.469 104V105H232.469V104H231.469ZM216.703 104H215.703V105H216.703V104ZM199.922 104V105H200.922V104H199.922ZM185.109 104H184.109V105H185.109V104ZM185.109 56V55H184.109V56H185.109ZM199.922 56H200.922V55H199.922V56ZM199.922 63.5938H198.922V64.5938H199.922V63.5938ZM200.109 63.5938V64.5938H200.673L200.965 64.1109L200.109 63.5938ZM231.469 103H216.703V105H231.469V103ZM217.703 104V77.3281H215.703V104H217.703ZM217.703 77.3281C217.703 73.5205 217.029 70.4852 215.525 68.3797C213.976 66.2122 211.653 65.1719 208.734 65.1719V67.1719C211.128 67.1719 212.789 67.991 213.897 69.5422C215.049 71.1554 215.703 73.6982 215.703 77.3281H217.703ZM208.734 65.1719C205.875 65.1719 203.486 66.2877 201.641 68.4812L203.171 69.7688C204.639 68.0248 206.468 67.1719 208.734 67.1719V65.1719ZM201.641 68.4812C199.807 70.6613 198.922 73.4023 198.922 76.625H200.922C200.922 73.7852 201.693 71.5262 203.171 69.7688L201.641 68.4812ZM198.922 76.625V104H200.922V76.625H198.922ZM199.922 103H185.109V105H199.922V103ZM186.109 104V56H184.109V104H186.109ZM185.109 57H199.922V55H185.109V57ZM198.922 56V63.5938H200.922V56H198.922ZM199.922 64.5938H200.109V62.5938H199.922V64.5938ZM200.965 64.1109C204.318 58.5626 209.136 55.8281 215.531 55.8281V53.8281C208.426 53.8281 202.963 56.9374 199.253 63.0766L200.965 64.1109ZM215.531 55.8281C220.625 55.8281 224.286 57.3982 226.706 60.4008C229.158 63.4448 230.469 68.1237 230.469 74.6094H232.469C232.469 67.9075 231.123 62.6959 228.263 59.146C225.37 55.5549 221.062 53.8281 215.531 53.8281V55.8281ZM230.469 74.6094V104H232.469V74.6094H230.469ZM290.203 104V105H291.203V104H290.203ZM275.391 104H274.391V105H275.391V104ZM275.391 97.3906H276.391V96.3906H275.391V97.3906ZM275.203 97.3906V96.3906H274.661L274.365 96.8453L275.203 97.3906ZM245.859 98.8438L245.101 99.4959L245.104 99.4987L245.859 98.8438ZM275.203 61.4844L274.327 61.9658L274.611 62.4844H275.203V61.4844ZM275.391 61.4844V62.4844H276.391V61.4844H275.391ZM275.391 32.9375V31.9375H274.391V32.9375H275.391ZM290.203 32.9375H291.203V31.9375H290.203V32.9375ZM258.188 70.0625L258.999 70.6466L259.003 70.6419L258.188 70.0625ZM272.812 90.2188L272.029 89.5978L272.024 89.6041L272.812 90.2188ZM290.203 103H275.391V105H290.203V103ZM276.391 104V97.3906H274.391V104H276.391ZM275.391 96.3906H275.203V98.3906H275.391V96.3906ZM274.365 96.8453C271.186 101.731 266.559 104.172 260.344 104.172V106.172C267.191 106.172 272.47 103.425 276.041 97.936L274.365 96.8453ZM260.344 104.172C254.609 104.172 250.066 102.171 246.615 98.1888L245.104 99.4987C248.965 103.954 254.078 106.172 260.344 106.172V104.172ZM246.617 98.1916C243.165 94.1786 241.375 88.5178 241.375 81.0781H239.375C239.375 88.8259 241.241 95.0089 245.101 99.4959L246.617 98.1916ZM241.375 81.0781C241.375 73.3114 243.344 67.2013 247.186 62.6446L245.657 61.3554C241.437 66.3612 239.375 72.9698 239.375 81.0781H241.375ZM247.186 62.6446C251.018 58.0999 256.014 55.8281 262.266 55.8281V53.8281C255.455 53.8281 249.888 56.3376 245.657 61.3554L247.186 62.6446ZM262.266 55.8281C268.184 55.8281 272.107 57.9243 274.327 61.9658L276.08 61.0029C273.425 56.1695 268.722 53.8281 262.266 53.8281V55.8281ZM275.203 62.4844H275.391V60.4844H275.203V62.4844ZM276.391 61.4844V32.9375H274.391V61.4844H276.391ZM275.391 33.9375H290.203V31.9375H275.391V33.9375ZM289.203 32.9375V104H291.203V32.9375H289.203ZM276.672 80.6562V77.0469H274.672V80.6562H276.672ZM276.672 77.0469C276.672 73.7147 275.699 70.8757 273.704 68.6055L272.202 69.9257C273.832 71.7805 274.672 74.129 274.672 77.0469H276.672ZM273.704 68.6055C271.69 66.313 269.05 65.1719 265.875 65.1719V67.1719C268.513 67.1719 270.592 68.0932 272.202 69.9257L273.704 68.6055ZM265.875 65.1719C262.282 65.1719 259.411 66.6159 257.372 69.4831L259.003 70.6419C260.652 68.3216 262.906 67.1719 265.875 67.1719V65.1719ZM257.376 69.4785C255.367 72.2697 254.422 76.0327 254.422 80.6562H256.422C256.422 76.2798 257.32 72.9803 258.999 70.6465L257.376 69.4785ZM254.422 80.6562C254.422 84.9995 255.337 88.5002 257.306 91.0217L258.882 89.7908C257.288 87.7498 256.422 84.7505 256.422 80.6562H254.422ZM257.306 91.0217C259.295 93.5698 262.068 94.8281 265.5 94.8281V92.8281C262.62 92.8281 260.455 91.8052 258.882 89.7908L257.306 91.0217ZM265.5 94.8281C268.814 94.8281 271.541 93.478 273.601 90.8334L272.024 89.6041C270.334 91.772 268.186 92.8281 265.5 92.8281V94.8281ZM273.596 90.8397C275.679 88.2107 276.672 84.7837 276.672 80.6562H274.672C274.672 84.4663 273.758 87.4143 272.029 89.5978L273.596 90.8397ZM342.609 104V105H343.609V104H342.609ZM328.594 104H327.594V105H328.594V104ZM328.594 97.1094H329.594V96.1094H328.594V97.1094ZM328.406 97.1094V96.1094H327.84L327.548 96.5956L328.406 97.1094ZM303.094 101.234L302.387 101.942L302.395 101.95L303.094 101.234ZM315.656 74.5156L315.785 75.5072L315.788 75.5069L315.656 74.5156ZM328.688 72.7812L328.819 73.7725L329.688 73.657V72.7812H328.688ZM303.844 70.0156H302.844V71.8747L304.395 70.85L303.844 70.0156ZM303.844 58.8594L303.386 57.9704L302.844 58.2496V58.8594H303.844ZM312.281 56.0469L312.061 55.0715L312.059 55.0719L312.281 56.0469ZM328.688 81.2656H329.688V80.1283L328.56 80.2738L328.688 81.2656ZM319.969 82.3906L319.841 81.3988L319.84 81.399L319.969 82.3906ZM314.484 93.0781L313.797 93.8046L313.807 93.8141L313.818 93.8234L314.484 93.0781ZM326.062 91.8125L326.799 92.4888L326.805 92.4828L326.062 91.8125ZM342.609 103H328.594V105H342.609V103ZM329.594 104V97.1094H327.594V104H329.594ZM328.594 96.1094H328.406V98.1094H328.594V96.1094ZM327.548 96.5956C324.512 101.666 320.074 104.172 314.109 104.172V106.172C320.77 106.172 325.863 103.303 329.264 97.6231L327.548 96.5956ZM314.109 104.172C309.648 104.172 306.251 102.92 303.792 100.519L302.395 101.95C305.312 104.799 309.258 106.172 314.109 106.172V104.172ZM303.801 100.527C301.364 98.0908 300.109 94.8311 300.109 90.6406H298.109C298.109 95.2626 299.511 99.0654 302.387 101.941L303.801 100.527ZM300.109 90.6406C300.109 86.1936 301.419 82.8021 303.944 80.3412C306.492 77.8584 310.392 76.21 315.785 75.5072L315.527 73.524C309.889 74.2587 305.516 76.0166 302.548 78.9088C299.558 81.8229 298.109 85.7752 298.109 90.6406H300.109ZM315.788 75.5069L328.819 73.7725L328.556 71.79L315.524 73.5244L315.788 75.5069ZM329.688 72.7812C329.688 69.9806 328.925 67.7023 327.233 66.1402C325.556 64.592 323.135 63.9062 320.156 63.9062V65.9062C322.865 65.9062 324.71 66.533 325.876 67.6098C327.028 68.6727 327.688 70.3319 327.688 72.7812H329.688ZM320.156 63.9062C314.226 63.9062 308.599 65.6761 303.293 69.1813L304.395 70.85C309.401 67.5427 314.649 65.9062 320.156 65.9062V63.9062ZM304.844 70.0156V58.8594H302.844V70.0156H304.844ZM304.302 59.7483C306.26 58.7397 308.982 57.825 312.504 57.0218L312.059 55.0719C308.456 55.8937 305.553 56.854 303.386 57.9704L304.302 59.7483ZM312.502 57.0223C316.041 56.2222 319.231 55.8281 322.078 55.8281V53.8281C319.051 53.8281 315.709 54.2466 312.061 55.0715L312.502 57.0223ZM322.078 55.8281C328.768 55.8281 333.602 57.4963 336.77 60.6571C339.938 63.8176 341.609 68.6391 341.609 75.3125H343.609C343.609 68.3297 341.859 62.909 338.183 59.2413C334.507 55.5741 329.075 53.8281 322.078 53.8281V55.8281ZM341.609 75.3125V104H343.609V75.3125H341.609ZM329.688 84.5V81.2656H327.688V84.5H329.688ZM328.56 80.2738L319.841 81.3988L320.097 83.3824L328.815 82.2574L328.56 80.2738ZM319.84 81.399C317.327 81.7254 315.297 82.4715 313.885 83.7459C312.44 85.0503 311.75 86.8099 311.75 88.9062H313.75C313.75 87.2839 314.264 86.0982 315.225 85.2306C316.219 84.3331 317.798 83.6809 320.098 83.3823L319.84 81.399ZM311.75 88.9062C311.75 90.8501 312.428 92.5096 313.797 93.8046L315.172 92.3517C314.228 91.4592 313.75 90.3374 313.75 88.9062H311.75ZM313.818 93.8234C315.232 95.0887 317.085 95.6719 319.266 95.6719V93.6719C317.447 93.6719 316.112 93.1926 315.151 92.3329L313.818 93.8234ZM319.266 95.6719C322.303 95.6719 324.844 94.618 326.799 92.4888L325.326 91.1362C323.781 92.8195 321.79 93.6719 319.266 93.6719V95.6719ZM326.805 92.4828C328.742 90.3382 329.688 87.6518 329.688 84.5H327.688C327.688 87.2232 326.883 89.4118 325.32 91.1422L326.805 92.4828Z" fill="#222222"/>
</svg>
